<?xml version="1.0" encoding="utf-8"?>
<!-- Generator: Adobe Illustrator 22.0.0, SVG Export Plug-In . SVG Version: 6.00 Build 0)  -->
<svg version="1.1" id="Layer_4" xmlns="http://www.w3.org/2000/svg" xmlns:xlink="http://www.w3.org/1999/xlink" x="0px" y="0px"
	 viewBox="0 0 613.1 69" style="enable-background:new 0 0 613.1 69;" xml:space="preserve">
<style type="text/css">
	.st0{fill:#757575;}
	.st1{clip-path:url(#SVGID_2_);fill:#DB4437;}
	.st2{fill:#4285F4;}
	.st3{fill:url(#XMLID_2_);}
	.st4{fill:#FFC107;}
	.st5{fill:#0F9D58;}
	.st6{fill:url(#XMLID_3_);}
</style>
<path id="XMLID_5261_" class="st0" d="M321.4,9.7h13.4c13.6,0,22.2,9.1,22.2,21.9s-8.6,21.9-22.2,21.9h-13.4V9.7z M334.8,48.1
	c10,0,16.5-6,16.5-16.5s-6.4-16.5-16.5-16.5H327v33H334.8z M360,38.5c0-8.5,5.9-16,14.7-16c8.9,0,14.7,6.3,14.7,16
	c0,0.4-0.1,1-0.1,1h-23.7c0.3,6.4,4.9,9.8,9.5,9.8c3.3,0,6.6-1.3,8.2-5.1l5,2.1c-1.8,4.3-6.2,8.2-13.1,8.2
	C366.1,54.5,360,47.6,360,38.5z M374.6,27.7c-4.2,0-7.5,2.8-8.6,7.2h17.4C383.2,32.3,381,27.7,374.6,27.7z M391.3,23.5h6.1l8.8,23.2
	h0.1l8.9-23.2h6l-12.2,30h-5.6L391.3,23.5z M421.7,38.5c0-8.5,5.9-16,14.7-16c8.9,0,14.7,6.3,14.7,16c0,0.4-0.1,1-0.1,1h-23.7
	c0.3,6.4,4.9,9.8,9.5,9.8c3.3,0,6.6-1.3,8.2-5.1l5,2.1c-1.8,4.3-6.2,8.2-13.1,8.2C427.9,54.5,421.7,47.6,421.7,38.5z M436.3,27.7
	c-4.2,0-7.5,2.8-8.6,7.2h17.4C444.9,32.3,442.7,27.7,436.3,27.7z M455.6,53.5V9.7h5.6v43.8H455.6z M496.6,38.5c0,9.1-6.4,16-15.4,16
	s-15.4-6.9-15.4-16s6.4-16,15.4-16C490.2,22.6,496.6,29.4,496.6,38.5z M491,38.5c0-6.9-4.8-10.8-9.8-10.8s-9.8,4-9.8,10.8
	s4.8,10.8,9.8,10.8S491,45.4,491,38.5z M506.5,49.4h-0.2l0.2,4.2v13.2h-5.6V23.5h5.4v4.2h0.2c1.7-2.8,5.4-5.1,10.2-5.1
	c7.6,0,14.3,6.8,14.3,16s-6.7,16-14.3,16C512,54.5,508.2,52.1,506.5,49.4z M525.4,38.5c0-6.7-4.5-10.8-9.5-10.8s-9.5,4-9.5,10.8
	s4.5,10.8,9.5,10.8C520.8,49.4,525.4,45.3,525.4,38.5z M534.1,38.5c0-8.5,5.9-16,14.7-16c8.9,0,14.7,6.3,14.7,16c0,0.4-0.1,1-0.1,1
	h-23.7c0.3,6.4,4.9,9.8,9.5,9.8c3.3,0,6.6-1.3,8.2-5.1l5,2.1c-1.8,4.3-6.2,8.2-13.1,8.2C540.2,54.5,534.1,47.6,534.1,38.5z
	 M548.7,27.7c-4.2,0-7.5,2.8-8.6,7.2h17.4C557.3,32.3,555.1,27.7,548.7,27.7z M568,53.5v-30h5.4v4.9h0.2c1.2-3.4,5.6-5.6,8.7-5.6
	c1.8,0,3.1,0.2,4.2,0.7l-2.1,5.3c-0.8-0.3-1.8-0.4-3-0.4c-3.9,0-7.8,3.2-7.8,8.7v16.4H568z M588.2,45.9l5-2.1
	c1.6,3.8,4.5,5.6,8.1,5.6c3.5,0,6-1.7,6-4.2c0-1.5-0.9-3.2-4.1-4l-6.1-1.5c-2.8-0.7-8-3.1-8-8.3c0-5.4,5.6-8.9,11.9-8.9
	c5.2,0,9.7,2.4,11.6,7l-4.9,2c-1.2-2.8-3.9-4-6.9-4c-3.2,0-5.9,1.4-5.9,3.9c0,1.9,1.6,2.9,4,3.5l5.9,1.4c5.9,1.4,8.3,5.1,8.3,8.7
	c0,5.3-4.8,9.4-11.8,9.4C594.1,54.5,590,50.2,588.2,45.9z M133.1,54.5c7.5,0,13.1-2.4,17.5-7c4.5-4.5,5.9-10.9,5.9-16
	c0-1.6-0.1-3.1-0.4-4.3H133V34h16.4c-0.5,3.9-1.8,6.7-3.7,8.6c-2.4,2.4-6.1,5-12.7,5c-10.1,0-18-8.1-18-18.2s7.9-18.2,18-18.2
	c5.4,0,9.4,2.1,12.4,4.9l4.8-4.8c-4.1-3.9-9.5-6.9-17.2-6.9c-13.8,0-25.4,11.3-25.4,25.1S119.2,54.5,133.1,54.5z M175.1,22.2
	c-8.9,0-16.2,6.8-16.2,16.1s7.3,16.1,16.2,16.1s16.2-6.9,16.2-16.1C191.3,29,184.1,22.2,175.1,22.2z M175.1,48.1
	c-4.9,0-9.1-4-9.1-9.8s4.2-9.8,9.1-9.8c4.9,0,9.1,4,9.1,9.8C184.3,44.1,180,48.1,175.1,48.1z M210.5,22.2c-8.9,0-16.2,6.8-16.2,16.1
	s7.3,16.1,16.2,16.1s16.2-6.9,16.2-16.1C226.7,29,219.4,22.2,210.5,22.2z M210.5,48.1c-4.9,0-9.1-4-9.1-9.8s4.2-9.8,9.1-9.8
	c4.9,0,9.1,4,9.1,9.8S215.4,48.1,210.5,48.1z M253.9,23.2v2.6h-0.2c-1.6-1.9-4.6-3.6-8.5-3.6c-8.1,0-15.5,7.1-15.5,16.2
	s7.4,16.1,15.5,16.1c3.9,0,6.9-1.7,8.5-3.7h0.2v2.3c0,6.2-3.3,9.5-8.6,9.5c-4.3,0-7-3.1-8.1-5.7l-6.2,2.6c1.8,4.3,6.5,9.5,14.3,9.5
	c8.3,0,15.4-4.9,15.4-16.8v-29H253.9z M245.8,48.1c-4.9,0-9-4.1-9-9.7c0-5.7,4.1-9.8,9-9.8c4.8,0,8.6,4.2,8.6,9.8
	C254.4,44,250.6,48.1,245.8,48.1z M272.6,6.1h-7.1v47.5h7.1V6.1z M292.1,48.1c-3.6,0-6.2-1.7-7.8-4.9l21.6-8.9l-0.7-1.8
	c-1.3-3.6-5.4-10.3-13.8-10.3c-8.3,0-15.2,6.5-15.2,16.1c0,9.1,6.9,16.1,16,16.1c7.4,0,11.7-4.5,13.5-7.2l-5.5-3.7
	C298.2,46.4,295.7,48.1,292.1,48.1z M291.5,28.4c2.8,0,5.2,1.4,6,3.4l-14.4,6C282.9,31.6,287.9,28.4,291.5,28.4z"/>
<g>
	<defs>
		<path id="SVGID_1_" d="M36.8,0h-20l-16,27.7c-1,1.8-1,4,0,5.7l16,27.7h20L19.1,30.6L36.8,0z"/>
	</defs>
	<clipPath id="SVGID_2_">
		<use xlink:href="#SVGID_1_"  style="overflow:visible;"/>
	</clipPath>
	<polygon id="XMLID_5260_" class="st1" points="19.1,30.6 36.8,0 16.8,0 9.1,13.2 	"/>
</g>
<path id="XMLID_5256_" class="st2" d="M0.8,27.7c-1,1.8-1,4,0,5.7l16,27.7h20L9.1,13.2L0.8,27.7z"/>
<radialGradient id="XMLID_2_" cx="-6709.4927" cy="-2090.6902" r="19.6589" gradientTransform="matrix(-1 0 0 -1 -6700.2563 -2077.0708)" gradientUnits="userSpaceOnUse">
	<stop  offset="0" style="stop-color:#3E2723;stop-opacity:0.2"/>
	<stop  offset="1" style="stop-color:#3E2723;stop-opacity:2.000000e-02"/>
</radialGradient>
<polygon id="XMLID_5098_" class="st3" points="19.1,30.6 21.8,25.9 9.1,13.3 "/>
<polygon id="XMLID_5094_" class="st4" points="65,30.6 47.3,61.2 67.3,61.2 75,47.9 "/>
<g id="XMLID_5089_">
	<path id="XMLID_5090_" class="st5" d="M83.3,33.5c1-1.8,1-4,0-5.7L67.3,0h-20L75,47.9L83.3,33.5z"/>
</g>
<radialGradient id="XMLID_3_" cx="74.8643" cy="2258.0259" r="19.6589" gradientTransform="matrix(1 0 0 1 0 -2210.4775)" gradientUnits="userSpaceOnUse">
	<stop  offset="0" style="stop-color:#BF360C;stop-opacity:0.2"/>
	<stop  offset="1" style="stop-color:#BF360C;stop-opacity:2.000000e-02"/>
</radialGradient>
<polygon id="XMLID_5076_" class="st6" points="65,30.6 62.3,35.2 75,47.9 "/>
</svg>
