<!-- Generator: Adobe Illustrator 19.1.0, SVG Export Plug-In  -->
<svg version="1.1"
	 xmlns="http://www.w3.org/2000/svg" xmlns:xlink="http://www.w3.org/1999/xlink" xmlns:a="http://ns.adobe.com/AdobeSVGViewerExtensions/3.0/"
	 x="0px" y="0px" width="394.7px" height="42.3px" viewBox="0 0 394.7 42.3" style="enable-background:new 0 0 394.7 42.3;"
	 xml:space="preserve">
<style type="text/css">
	.st0{fill:#757575;}
	.st1{fill:#757575;stroke:#FFFFFF;stroke-miterlimit:10;}
</style>
<defs>
</defs>
<g>
	<path class="st0" d="M67.2,18.8c2.3,0,4.7,0,7,0c0.4,0,0.7,0.1,0.8,0.6c0.4,3.6,0,7-1.7,10.2c-2.4,4.3-6.2,6.8-11.1,7.4
		c-5.5,0.8-10.4-0.7-14.6-4.5c-6.4-5.9-7.2-15.7-1.8-22.5c5-6.4,13.6-8.4,20.9-4.9c1.4,0.7,2.6,1.6,3.8,2.6c0.3,0.3,0.4,0.5,0,0.8
		c-0.8,0.8-1.7,1.6-2.5,2.5c-0.3,0.3-0.5,0.3-0.9,0C63.5,7.6,59.2,7.1,54.7,9c-4.4,1.8-6.8,5.3-7.3,9.9c-0.8,6.7,3.8,12.6,10.5,13.5
		c4,0.5,7.6-0.5,10.4-3.7c1.2-1.3,1.7-3,2-4.7c0.1-0.6-0.3-0.4-0.6-0.4c-2.6,0-5.2,0-7.7,0c-0.8,0-1.8,0.3-2.3-0.1
		c-0.5-0.5-0.1-1.5-0.2-2.3c0-0.5,0-1,0-1.5c-0.1-0.6,0.1-0.8,0.8-0.8C62.6,18.8,64.9,18.8,67.2,18.8z"/>
	<path class="st0" d="M133.4,18.8c2.3,0,4.6,0,6.9,0c0.5,0,0.8,0.1,0.8,0.7c1.1,8.6-3.7,15.9-12.2,17.4c-8.1,1.4-15.5-2.3-19-9.5
		c-4.3-8.8,0.2-19.7,9.7-23c6.2-2.1,11.9-1.2,16.9,3.1c0.4,0.4,0.5,0.6,0,1c-0.8,0.7-1.5,1.5-2.3,2.3c-0.3,0.4-0.6,0.4-1,0.1
		c-2.2-2-4.8-2.9-7.7-2.9c-5.7,0-10.1,3.5-11.7,8.5c-1.8,5.5,0.5,11.4,5.5,14.4c4.5,2.7,10.7,2,14.4-1.6c1.5-1.4,2.1-3.2,2.5-5.1
		c0.1-0.6-0.2-0.6-0.7-0.6c-3,0-6.1,0-9.1,0c-0.8,0-1-0.2-1-1c0.1-1,0.1-2,0-3.1c0-0.6,0.1-0.8,0.8-0.8
		C128.7,18.8,131,18.8,133.4,18.8z"/>
	<path class="st0" d="M79,20.2c0-5.1,0-10.1,0-15.2c0-0.7,0.2-0.9,0.8-0.9c3.3,0,6.6,0,9.8,0c7.7,0.2,14,4.7,15.3,12.7
		c0.9,5.4,0,10.4-3.8,14.5c-2.7,2.9-6.1,4.3-10,4.7c-3.9,0.4-7.7,0.1-11.6,0.2c-0.7,0-0.6-0.4-0.6-0.8C79,30.4,79,25.3,79,20.2z
		 M83.8,20.1c0,3.5,0,7,0,10.5c0,0.3-0.2,0.8,0.5,0.8c2.5-0.1,5.1,0.2,7.6-0.2c4.2-0.7,7.1-3.3,8.1-7.4c0.5-1.9,0.5-3.8,0.2-5.8
		c-0.5-4.5-3.6-7.8-8-8.6c-2.5-0.5-5-0.2-7.6-0.3c-0.7,0-0.8,0.2-0.8,0.8C83.9,13.3,83.8,16.7,83.8,20.1z"/>
	<path class="st0" d="M322.7,18.5c1.1-1.5,2.6-2.4,4.3-3c2.9-0.9,6.3,0.3,8,2.9c0.3,0.5,0.5,0.4,0.8,0c2.4-3.2,6.2-3.8,9.5-2.7
		c2.3,0.8,3.5,2.6,4.1,4.9c0.2,0.9,0.3,1.9,0.3,2.9c0,4,0,7.9,0,11.9c0,0.8-0.2,1-1,0.9c-0.7-0.1-1.5-0.1-2.3,0
		c-0.6,0-0.8-0.2-0.8-0.8c0-3.9,0-7.7,0-11.6c0-0.9-0.1-1.7-0.4-2.5c-0.4-1.1-1-1.8-2.1-2.2c-3.6-1-5.8,0.9-6.8,4
		c-0.2,0.7-0.2,1.5-0.2,2.3c0,3.3,0,6.6,0,9.9c0,0.6-0.1,0.9-0.8,0.9c-0.7-0.1-1.5-0.1-2.2,0c-0.7,0.1-1-0.1-1-0.9
		c0-3.7,0-7.4,0-11.1c0-1.2-0.1-2.4-0.6-3.5c-0.4-0.9-1-1.4-1.9-1.7c-3.9-1.2-6.1,1.4-6.9,4.3c-0.2,0.7-0.2,1.5-0.2,2.2
		c0,3.3,0,6.5,0,9.8c0,0.7-0.2,0.8-0.8,0.8c-0.8,0-1.6,0-2.4,0c-0.5,0-0.7-0.1-0.7-0.7c0-2.2,0-4.3,0-6.5c0-4.2,0-8.3,0-12.5
		c0-0.6,0.2-0.8,0.8-0.8c0.8,0,1.5,0,2.3,0c0.6,0,0.8,0.2,0.8,0.8C322.6,17.3,322.5,17.8,322.7,18.5z"/>
	<path class="st0" d="M357.9,33.8c-0.2,0.7-0.1,1.3-0.1,1.9c0,0.4-0.2,0.6-0.6,0.6c-0.9,0-1.7,0-2.6,0c-0.5,0-0.6-0.2-0.6-0.6
		c0-0.9,0-1.8,0-2.7c0-8.5,0-17,0-25.6c0-0.8,0.3-1,1-1c0.7,0,1.4,0,2.1,0c0.7,0,0.9,0.2,0.9,0.9c-0.1,3.4-0.1,6.8-0.1,10.2
		c0,0.3,0,0.5,0,1c1.2-1.5,2.5-2.4,4.1-2.9c4.1-1.1,7.5,0,10.1,3.3c3.7,4.5,3.3,12.4-2.1,16.4c-3.6,2.6-8.7,2.1-11.7-1.1
		C358.2,34.1,358.1,34,357.9,33.8z M364.2,33.3c2.4,0,4.3-1.2,5.4-3.3c1-1.8,1.1-3.7,0.8-5.6c-0.5-2.8-2.7-5.1-5.4-5.4
		c-2.8-0.4-5.3,1.1-6.5,3.8c-0.7,1.5-0.8,3.1-0.6,4.7C358.3,30.7,360.7,33.4,364.2,33.3z"/>
	<path class="st0" d="M277.7,33.7c0,0.7,0,1.3,0,1.8c0.1,0.7-0.2,0.9-0.9,0.8c-0.7,0-1.5,0-2.2,0c-0.6,0-0.7-0.1-0.7-0.7
		c0-1.9,0-3.8,0-5.6c0-7.5,0-14.9,0-22.4c0-0.9,0.3-1.1,1.1-1c0.7,0,1.4,0,2.1,0c0.6,0,0.8,0.2,0.8,0.8c-0.1,3.4,0.1,6.8-0.1,10.2
		c0,0.2,0,0.5,0,0.7c0.1,0.1,0.2,0.1,0.2,0c2.9-3.8,9.3-4,12.9-0.6c4.8,4.6,4.8,13.4-1,17.6c-3.7,2.7-8.8,2.1-11.8-1.3
		C278.1,34,278,34,277.7,33.7z M277.7,26.4c0,0.6,0.1,1.4,0.3,2.2c0.7,2.3,2.1,4,4.5,4.5c2.3,0.5,4.3,0,6-1.8
		c2.6-2.7,2.6-7.9-0.1-10.6c-2.5-2.6-6.4-2.5-8.8,0.1C278.2,22.4,277.7,24.2,277.7,26.4z"/>
	<path class="st0" d="M171,6c4.4-0.1,7.9,1.3,10.7,4.2c0.5,0.5,0.6,0.8,0,1.3c-0.6,0.5-1.1,1-1.6,1.5c-0.5,0.6-0.8,0.6-1.4,0
		c-1.4-1.6-3.1-2.6-5.2-3c-6.4-1.2-12,2.6-13.3,8.3c-0.9,4-0.5,7.8,2.3,11c4.3,5,11.7,5.3,16.5,0.7c1.2-1.2,1.2-1.2,2.5,0
		c0.4,0.4,0.7,0.8,1.2,1.1c0.4,0.4,0.4,0.7,0,1c-2.5,2.6-5.6,4.1-9.1,4.7c-2.9,0.4-5.6,0.1-8.3-0.9c-4.3-1.8-7.3-4.8-8.6-9.3
		c-1.4-4.4-1.1-8.8,1.1-12.9C160.2,9.2,165.1,5.8,171,6z"/>
	<path class="st0" d="M265.8,33.9c-0.9,1.1-1.9,2.1-3.3,2.6c-3.4,1.4-7.9,0-9.8-3c-2.1-3.5-0.9-7.8,2.8-9.5c3.2-1.4,6.4-1.3,9.7-0.2
		c0.8,0.3,0.8,0.3,0.8-0.6c-0.2-2.6-2.9-4.7-5.5-4.5c-1.6,0.2-3.1,0.8-4.1,2.1c-0.4,0.6-0.7,0.5-1.2,0.2c-0.7-0.5-1.4-1-2.2-1.4
		c-0.6-0.3-0.5-0.6-0.2-1c1.4-1.7,3.1-2.7,5.2-3.2c2.8-0.6,5.5-0.5,8,1c2.5,1.4,3.8,3.7,3.8,6.5c0.1,4.2,0,8.5,0,12.7
		c0,0.4-0.1,0.6-0.6,0.6c-0.9,0-1.7,0-2.6,0c-0.5,0-0.7-0.2-0.6-0.7c0-0.6,0-1.2,0-1.7C265.9,33.9,265.8,33.9,265.8,33.9z
		 M261.4,26.3c-1.6,0-3,0.3-4.1,1.1c-2.1,1.5-1.9,4.1,0.3,5.4c1.5,0.9,3.1,0.9,4.6,0.2c1.8-0.8,3.1-2.1,3.7-4
		c0.3-1.1,0.2-1.3-0.8-1.9C263.9,26.5,262.6,26.3,261.4,26.3z"/>
	<path class="st0" d="M310.7,33.9c-0.3,0.3-0.5,0.6-0.8,0.9c-3.2,3.7-10.1,2.7-12.4-1.3c-2-3.5-0.7-7.7,3-9.4
		c3.2-1.4,6.4-1.3,9.6-0.2c0.6,0.2,0.8,0.2,0.8-0.5c-0.2-2.7-2.9-4.8-5.7-4.5c-1.6,0.2-3,0.8-4,2.1c-0.4,0.5-0.7,0.5-1.2,0.2
		c-0.7-0.5-1.5-1-2.3-1.5c-0.4-0.3-0.4-0.5-0.1-0.9c1.4-1.9,3.3-2.9,5.6-3.3c2.1-0.4,4.3-0.3,6.4,0.4c3.1,1.1,5.1,3.8,5.1,7
		c0.1,4.2,0,8.5,0,12.7c0,0.5-0.1,0.7-0.6,0.7c-0.9,0-1.7,0-2.6,0c-0.5,0-0.6-0.2-0.6-0.6c0-0.6,0-1.2,0-1.8
		C310.8,33.9,310.7,33.9,310.7,33.9z M306.1,26.3c-1.8,0-3.6,0.4-4.8,1.9c-1.1,1.4-0.8,3.3,0.7,4.3c1.6,1.2,3.4,1.3,5.2,0.4
		c1.7-0.8,3-2.1,3.5-4c0.3-1.1,0.2-1.3-0.8-1.9C308.8,26.5,307.5,26.3,306.1,26.3z"/>
	<path class="st0" d="M390.7,33.9c-0.3,0.3-0.6,0.6-0.8,0.9c-3.7,3.8-10.9,2.6-12.8-2.3c-1.5-3.7,0.5-7.9,4.4-8.9
		c3-0.8,5.9-0.8,8.8,0.3c0.6,0.2,0.5,0,0.6-0.4c0-3.2-3.5-5-5.7-4.7c-1.6,0.2-3,0.9-4.1,2.2c-0.3,0.4-0.6,0.5-1.1,0.2
		c-0.8-0.5-1.6-1-2.4-1.5c-0.4-0.3-0.5-0.5-0.1-0.9c1.5-1.9,3.5-3,5.8-3.4c2.6-0.4,5.3-0.2,7.6,1.2c2.4,1.4,3.6,3.6,3.6,6.4
		c0.1,4.2,0,8.4,0,12.7c0,0.5-0.1,0.7-0.7,0.7c-0.8,0-1.6,0-2.3,0c-0.6,0-0.8-0.2-0.8-0.8c0-0.5,0-1.1,0-1.6
		C390.9,33.9,390.8,33.9,390.7,33.9z M386.5,26.3c-1.7,0-3.1,0.3-4.3,1.2c-2,1.5-1.9,4,0.2,5.3c1.6,0.9,3.2,0.9,4.8,0.2
		c1.8-0.8,3-2.1,3.6-4c0.3-1,0.2-1.3-0.8-1.8C388.8,26.5,387.6,26.3,386.5,26.3z"/>
	<path class="st0" d="M234.7,18.4c2.6-3.2,6.4-3.8,9.7-2.5c2.7,1,3.9,3.2,4.3,5.9c0.3,2.3,0.1,4.7,0.1,7c0,2.3,0,4.5,0,6.8
		c0,0.6-0.2,0.9-0.8,0.8c-0.8-0.1-1.6-0.1-2.4,0c-0.7,0-0.8-0.2-0.8-0.8c0-3.9,0-7.7,0-11.6c0-1.4-0.3-2.8-1.4-3.8
		c-1.5-1.4-4.4-1.5-6.1-0.3c-1.8,1.3-2.7,3.2-2.7,5.3c0,3.5,0,6.9,0,10.4c0,0.6-0.2,0.9-0.8,0.8c-0.7-0.1-1.5-0.1-2.3,0
		c-0.8,0.1-0.9-0.2-0.9-0.9c0-4.3,0-8.7,0-13c0-5,0-10,0-15c0-0.7,0.2-0.9,0.9-0.9c0.7,0,1.5,0,2.2,0c0.6,0,0.8,0.2,0.8,0.8
		c-0.1,3.4,0.1,6.9-0.1,10.3C234.5,17.9,234.5,18.1,234.7,18.4z"/>
	<path class="st1" d="M12.7,21.3c-1-2.1-2.2-4-3.3-5.9C6.7,10.6,3.9,5.9,1.2,1.2C1.1,1,1,0.8,0.9,0.6c2.5,0,4.9,0,7.4,0
		c4,7,8,13.9,12,20.9c1.1,1.9,2.3,3.8,3.5,5.7c-1.2,2.2-2.4,4.4-3.8,6.5c-1.2-2-2.2-4-3.5-5.9C15.3,25.5,14,23.4,12.7,21.3z"/>
	<path class="st0" d="M205.7,26.1c0.1,4.5-1.8,8.1-5.9,9.9c-5.4,2.4-12.2,0.4-14.3-6c-1.7-5-0.3-11,4.9-13.6
		c5.5-2.8,12.8-0.7,15,6.1c0.2,0.6,0.3,1.2,0.4,1.8C205.7,24.9,205.7,25.5,205.7,26.1z M188.8,26.2c-0.1,1.2,0.2,2.5,0.8,3.6
		c1.1,2.1,2.9,3.4,5.3,3.5c2.5,0.1,4.5-0.9,5.8-3c1.2-2,1.4-4.2,0.9-6.4c-0.8-3.5-4.6-5.7-8-4.7C190.9,19.9,188.7,22.7,188.8,26.2z"
		/>
	<path class="st0" d="M212,26.2c-0.2,3.2,2,6.1,4.5,6.9c2.7,0.9,5.8-0.2,7.1-2.8c0.4-0.7,0.7-0.7,1.4-0.4c0.6,0.3,1.3,0.6,2,0.8
		c0.5,0.2,0.6,0.4,0.4,1c-1.7,3.5-5.4,5.6-9.4,5.3c-4.6-0.3-8-2.8-9.4-7c-1.8-5.1,0.1-10.7,4.4-13.3c4-2.4,10-2,13.1,2.1
		c0.4,0.6,0.8,1.2,1.1,1.9c0.2,0.3,0.2,0.6-0.2,0.8c-0.9,0.4-1.8,0.7-2.7,1.1c-0.6,0.2-0.7-0.2-0.9-0.6c-1.8-3.5-6.3-3.8-8.7-1.9
		C212.8,21.6,211.9,23.6,212,26.2z"/>
	<path class="st1" d="M23.7,27.2c-1.2-1.9-2.3-3.8-3.5-5.7c-4-6.9-8-13.9-12-20.9c2.2,0,4.4,0,6.6-0.1c0.4,0,0.5,0.3,0.7,0.5
		c2.8,4.8,5.6,9.6,8.3,14.4c0.7,1.2,1.4,2.4,2.1,3.6c0.8,1.4,0.8,2.8,0,4.3C25.2,24.6,24.4,25.9,23.7,27.2z"/>
	<path class="st1" d="M12.7,21.3c1.3,2.1,2.6,4.2,3.7,6.4c-2.7,4.7-5.4,9.4-8.1,14c-2.4,0-4.9,0-7.4,0c0.8-1.4,1.6-2.7,2.4-4.1
		c3.1-5.3,6.2-10.7,9.3-16C12.6,21.5,12.7,21.4,12.7,21.3z"/>
	<path class="st1" d="M8.3,41.8c2.7-4.7,5.4-9.4,8.1-14c1.3,1.9,2.3,3.9,3.5,5.9c-1.5,2.6-3,5.2-4.5,7.8c-0.1,0.2-0.3,0.4-0.6,0.4
		C12.7,41.8,10.5,41.8,8.3,41.8z"/>
</g>
</svg>
