<svg id="Layer_4" data-name="Layer 4" xmlns="http://www.w3.org/2000/svg" viewBox="0 0 416.39 128"><defs><style>.cls-1{fill:#518df2;}.cls-2{fill:#db5247;}.cls-3{fill:#179d5c;}.cls-4{fill:#fcbf0c;}.cls-5{fill:#fff;}</style></defs><title>Artboard 1</title><path class="cls-1" d="M36.77,64.48c-3-6.37-6.84-12.31-10.34-18.41C18,31.36,9.48,16.7,1,2,.67,1.47.38.89,0,.18H22.81Q41.41,32.49,60,64.79c3.47,6,7.15,11.87,10.74,17.8C67,89.34,63.19,96.1,59,102.64c-3.65-6.09-6.87-12.43-10.88-18.29C44.73,77.52,40.73,71,36.77,64.48Z"/><path class="cls-2" d="M70.74,82.59c-3.59-5.93-7.27-11.8-10.74-17.8Q41.36,32.53,22.81.18c6.83,0,13.65,0,20.48-.18,1.34,0,1.68.82,2.16,1.66Q58.38,24,71.29,46.35c2.16,3.74,4.29,7.5,6.49,11.23a12.09,12.09,0,0,1-.11,13.19C75.34,74.7,73.05,78.65,70.74,82.59Z"/><path class="cls-3" d="M36.77,64.48c4,6.53,8,13,11.39,19.87L23,127.84H0c2.47-4.28,4.89-8.5,7.33-12.7Q21.7,90.32,36.06,65.49A11.5,11.5,0,0,1,36.77,64.48Z"/><path class="cls-4" d="M23,127.84,48.16,84.35c4,5.86,7.23,12.2,10.88,18.29q-6.93,12.12-13.86,24.24A1.76,1.76,0,0,1,43.47,128C36.64,127.92,29.81,127.89,23,127.84Z"/><path class="cls-5" d="M104.54,109.76a5.76,5.76,0,0,1-2.28-2.26,6.83,6.83,0,0,1-.83-3.45,8,8,0,0,1,1.08-4.07,7.92,7.92,0,0,1,3-3,8.58,8.58,0,0,1,4.35-1.11,6.77,6.77,0,0,1,3,.63A5.31,5.31,0,0,1,115,98.31l-2.1,1.72a3.84,3.84,0,0,0-3.35-1.62,5.22,5.22,0,0,0-2.71.73,5.5,5.5,0,0,0-2,2,5.42,5.42,0,0,0-.74,2.77,4.5,4.5,0,0,0,.51,2.18,3.61,3.61,0,0,0,1.42,1.45,4.18,4.18,0,0,0,2.07.51,4.71,4.71,0,0,0,2.17-.49,7.86,7.86,0,0,0,1.93-1.45l1.68,1.9a8.66,8.66,0,0,1-2.73,1.95,8.34,8.34,0,0,1-3.3.6A6.72,6.72,0,0,1,104.54,109.76Z"/><path class="cls-5" d="M127.82,109.75a5.94,5.94,0,0,1-2.38-2.31,6.62,6.62,0,0,1-.86-3.41,8.26,8.26,0,0,1,1-4.06,7.84,7.84,0,0,1,2.95-3,8.42,8.42,0,0,1,4.32-1.11,6.94,6.94,0,0,1,3.43.84,6,6,0,0,1,2.35,2.33,6.72,6.72,0,0,1,.84,3.35,8.11,8.11,0,0,1-1,4.06,7.9,7.9,0,0,1-2.94,3,8.32,8.32,0,0,1-4.3,1.11A7.11,7.11,0,0,1,127.82,109.75Zm6.36-2.45a5.4,5.4,0,0,0,1.95-2,5.69,5.69,0,0,0,.72-2.82,4,4,0,0,0-.55-2.09,3.8,3.8,0,0,0-1.51-1.44,4.37,4.37,0,0,0-2.14-.52,5.17,5.17,0,0,0-2.74.74,5.37,5.37,0,0,0-2,2,5.5,5.5,0,0,0-.72,2.77,4.13,4.13,0,0,0,.55,2.14,3.85,3.85,0,0,0,1.51,1.46,4.37,4.37,0,0,0,2.14.52A5.18,5.18,0,0,0,134.18,107.3Z"/><path class="cls-5" d="M152.78,109.76a5.64,5.64,0,0,1-2.28-2.26,6.83,6.83,0,0,1-.83-3.45,8,8,0,0,1,4.08-7,8.57,8.57,0,0,1,4.34-1.11,6.82,6.82,0,0,1,3,.63,5.38,5.38,0,0,1,2.08,1.78l-2.1,1.72a3.84,3.84,0,0,0-3.35-1.62,5.22,5.22,0,0,0-2.71.73,5.5,5.5,0,0,0-2,2,5.42,5.42,0,0,0-.74,2.77,4.5,4.5,0,0,0,.51,2.18,3.54,3.54,0,0,0,1.42,1.45,4.18,4.18,0,0,0,2.07.51,4.71,4.71,0,0,0,2.17-.49,7.86,7.86,0,0,0,1.93-1.45l1.68,1.9a8.77,8.77,0,0,1-2.73,1.95,8.38,8.38,0,0,1-3.3.6A6.72,6.72,0,0,1,152.78,109.76Z"/><path class="cls-5" d="M175.26,96.21h2.63l-1,5.61h5.92l1-5.61h2.65l-2.49,14h-2.65l1.06-5.92h-5.92l-1.06,5.92h-2.62Z"/><path class="cls-5" d="M202.33,96.21h3.1l2.8,14h-2.82l-.61-3.36h-5.35l-1.76,3.36h-3Zm2,8.25-.64-3.53-.22-1.68h-.16l-.78,1.68-1.84,3.53Z"/><path class="cls-5" d="M221.44,96.21h5a5.14,5.14,0,0,1,2.27.47,3.43,3.43,0,0,1,1.44,1.26,3.22,3.22,0,0,1,.49,1.72,3.09,3.09,0,0,1-.71,2.1,3.86,3.86,0,0,1-1.76,1.13l0,.16a3.28,3.28,0,0,1,1.34,1.1,2.87,2.87,0,0,1,.52,1.74,3.84,3.84,0,0,1-.7,2.29,4.67,4.67,0,0,1-1.93,1.53,6.6,6.6,0,0,1-2.72.54H219ZM225,107.83a2.71,2.71,0,0,0,1.68-.51,1.72,1.72,0,0,0,.68-1.43,1.62,1.62,0,0,0-.49-1.22,2,2,0,0,0-1.4-.46h-2.78l-.65,3.62Zm.75-5.9a2.57,2.57,0,0,0,1.63-.47,1.54,1.54,0,0,0,.62-1.33,1.48,1.48,0,0,0-.45-1.12,1.69,1.69,0,0,0-1.19-.43h-2.69l-.57,3.35Z"/><path class="cls-5" d="M246.59,96.21h3.1l2.8,14h-2.82l-.61-3.36h-5.35L242,110.25h-3Zm2,8.25-.65-3.53-.21-1.68h-.16l-.78,1.68L245,104.46Z"/><path class="cls-5" d="M265.7,96.21H269l2,9.86h.16l5.45-9.86h3.49l-2.49,14H275l1.24-6.92.57-2.34h-.16l-5.15,9.26h-2.1l-2-9.26h-.16l-.25,2.34-1.24,6.92h-2.61Z"/><path class="cls-5" d="M292.16,96.21h5a5.14,5.14,0,0,1,2.27.47,3.43,3.43,0,0,1,1.44,1.26,3.22,3.22,0,0,1,.49,1.72,3.09,3.09,0,0,1-.71,2.1,3.86,3.86,0,0,1-1.76,1.13l0,.16a3.35,3.35,0,0,1,1.34,1.1,2.87,2.87,0,0,1,.52,1.74,3.84,3.84,0,0,1-.7,2.29,4.61,4.61,0,0,1-1.93,1.53,6.6,6.6,0,0,1-2.72.54h-5.68Zm3.53,11.62a2.71,2.71,0,0,0,1.68-.51,1.71,1.71,0,0,0,.67-1.43,1.58,1.58,0,0,0-.49-1.22,1.93,1.93,0,0,0-1.39-.46h-2.78l-.65,3.62Zm.75-5.9a2.57,2.57,0,0,0,1.63-.47,1.54,1.54,0,0,0,.62-1.33,1.48,1.48,0,0,0-.45-1.12,1.69,1.69,0,0,0-1.19-.43h-2.69l-.57,3.35Z"/><path class="cls-5" d="M317.31,96.21h3.1l2.8,14h-2.82l-.61-3.36h-5.35l-1.76,3.36h-3Zm2,8.25-.64-3.53-.22-1.68h-.16l-.78,1.68-1.84,3.53Z"/><path class="cls-5" d="M346.93,107.91l2.6-2.2c1.22-1,2.27-1.95,3.16-2.72A8.49,8.49,0,0,0,354,101.7a2,2,0,0,0,.36-1.2,1.43,1.43,0,0,0-.49-1.12,1.79,1.79,0,0,0-1.25-.44,2,2,0,0,0-1.36.48,2.85,2.85,0,0,0-.8,1.2l-2.29-1a5.06,5.06,0,0,1,1.71-2.22,5,5,0,0,1,3-.88A4.7,4.7,0,0,1,355,97a3.59,3.59,0,0,1,1.46,1.26,3.34,3.34,0,0,1,.53,1.85,4.08,4.08,0,0,1-.7,2.34,11.52,11.52,0,0,1-2.15,2.27l-3.72,3.17,0,.12h5.33l-.37,2.26h-8.9Z"/><path class="cls-5" d="M369.54,109.87a4.47,4.47,0,0,1-1.69-2,7.53,7.53,0,0,1-.61-3.19,9.51,9.51,0,0,1,.86-4,7.51,7.51,0,0,1,2.41-3A5.8,5.8,0,0,1,374,96.52a4.37,4.37,0,0,1,4.19,2.7,7.55,7.55,0,0,1,.61,3.2,9.45,9.45,0,0,1-.88,4.12,7.33,7.33,0,0,1-2.42,2.94,5.89,5.89,0,0,1-3.46,1.08A4.58,4.58,0,0,1,369.54,109.87Zm4.72-2.46a5,5,0,0,0,1.42-2,7.46,7.46,0,0,0,.51-2.8,4.81,4.81,0,0,0-.64-2.7,2.05,2.05,0,0,0-1.8-1,2.89,2.89,0,0,0-2,.79,5.32,5.32,0,0,0-1.41,2.08,7.16,7.16,0,0,0-.51,2.67,4.77,4.77,0,0,0,.67,2.7,2.06,2.06,0,0,0,1.77,1A3,3,0,0,0,374.26,107.41Z"/><path class="cls-5" d="M393,100.37l-2.05,1.29-1.12-2,4.37-2.84h2l-2.35,13.41h-2.57Z"/><path class="cls-5" d="M408,110.06a3.77,3.77,0,0,1-1.54-1.35,3.42,3.42,0,0,1-.54-1.86,3.51,3.51,0,0,1,.73-2.18,4.3,4.3,0,0,1,2-1.46l0-.16a3.15,3.15,0,0,1-.85-1,2.72,2.72,0,0,1-.33-1.34,3.57,3.57,0,0,1,.68-2.15,4.66,4.66,0,0,1,1.82-1.5,5.79,5.79,0,0,1,2.5-.55,4.59,4.59,0,0,1,2,.44,3.37,3.37,0,0,1,1.39,1.19,3.08,3.08,0,0,1,.5,1.71,3.33,3.33,0,0,1-.59,2,4.24,4.24,0,0,1-1.57,1.32l0,.16a3.22,3.22,0,0,1,1.12,1.11,3.12,3.12,0,0,1,.43,1.67,4,4,0,0,1-.71,2.35,4.67,4.67,0,0,1-2,1.58,6.64,6.64,0,0,1-2.76.56A5.16,5.16,0,0,1,408,110.06Zm4.41-2.46a1.92,1.92,0,0,0,.76-1.61,1.39,1.39,0,0,0-.56-1.15,2.22,2.22,0,0,0-1.44-.46,2.91,2.91,0,0,0-1.82.6,1.88,1.88,0,0,0-.78,1.56,1.49,1.49,0,0,0,.54,1.21,2.21,2.21,0,0,0,1.44.44A3,3,0,0,0,412.38,107.6Zm.9-6a1.6,1.6,0,0,0,.61-1.29,1.38,1.38,0,0,0-.49-1.09,1.9,1.9,0,0,0-1.28-.42,2.43,2.43,0,0,0-1.56.49,1.61,1.61,0,0,0-.63,1.35,1.32,1.32,0,0,0,.5,1.07,2,2,0,0,0,1.28.4A2.35,2.35,0,0,0,413.28,101.62Z"/><path class="cls-5" d="M100.67,17.44h24.57A40.88,40.88,0,0,1,145,22,31.88,31.88,0,0,1,158,34.8a38.38,38.38,0,0,1,4.57,19,38.36,38.36,0,0,1-4.57,19,31.82,31.82,0,0,1-13,12.79,40.88,40.88,0,0,1-19.79,4.57H100.67Zm24,59.69q11.77,0,18-6.24t6.2-17.11q0-10.86-6.2-17.1t-18-6.25H114.37v46.7Z"/><path class="cls-5" d="M171.42,88.19a25.32,25.32,0,0,1-9.69-9.79,28.18,28.18,0,0,1-3.5-14.06,28.36,28.36,0,0,1,3.45-13.76,26.68,26.68,0,0,1,9.54-10.1,25.41,25.41,0,0,1,13.6-3.75,26.48,26.48,0,0,1,13.81,3.45,22.58,22.58,0,0,1,8.78,9.44,29.37,29.37,0,0,1,3,13.3,31.9,31.9,0,0,1-.3,4.46H171.22c.67,4.13,2.32,7.26,4.92,9.39a14.38,14.38,0,0,0,9.39,3.2,15,15,0,0,0,7.87-2,14.61,14.61,0,0,0,5.23-5.33l10.76,5.28q-7.92,13.82-24.06,13.81A27.45,27.45,0,0,1,171.42,88.19Zm26.19-30.25a10.31,10.31,0,0,0-1.77-4.82,12.45,12.45,0,0,0-4.37-4,13.09,13.09,0,0,0-6.55-1.57,12.47,12.47,0,0,0-8.17,2.79,15.59,15.59,0,0,0-4.92,7.56Z"/><path class="cls-5" d="M200.75,38.35h15.13L229,72.05h.81l13.29-33.7H258L235.88,90.12h-13.2Z"/><path class="cls-5" d="M253.94,17.44H300v13H267.65V48.1h29.13v13H267.65v29H253.94Z"/><path class="cls-5" d="M306.42,88.19a25.32,25.32,0,0,1-9.69-9.79,28.18,28.18,0,0,1-3.5-14.06,28.36,28.36,0,0,1,3.45-13.76,26.68,26.68,0,0,1,9.54-10.1,25.41,25.41,0,0,1,13.6-3.75,26.48,26.48,0,0,1,13.81,3.45,22.52,22.52,0,0,1,8.78,9.44,29.37,29.37,0,0,1,3,13.3,31.9,31.9,0,0,1-.3,4.46H306.22q1,6.2,4.92,9.39a14.38,14.38,0,0,0,9.39,3.2,15,15,0,0,0,7.87-2,14.61,14.61,0,0,0,5.23-5.33l10.76,5.28q-7.92,13.82-24.06,13.81A27.45,27.45,0,0,1,306.42,88.19Zm26.19-30.25a10.2,10.2,0,0,0-1.77-4.82,12.45,12.45,0,0,0-4.37-4,13.09,13.09,0,0,0-6.55-1.57,12.47,12.47,0,0,0-8.17,2.79,15.66,15.66,0,0,0-4.92,7.56Z"/><path class="cls-5" d="M349.41,87.89a20.55,20.55,0,0,1-8.17-10l11.88-5.18a12.09,12.09,0,0,0,4.61,5.53,12.77,12.77,0,0,0,7,1.88,14,14,0,0,0,6.09-1.17,3.94,3.94,0,0,0,2.44-3.8A4.13,4.13,0,0,0,371,71.29a26,26,0,0,0-6.7-2.28l-6.09-1.32a22.33,22.33,0,0,1-10.45-5.53,13.32,13.32,0,0,1-4.17-10,13,13,0,0,1,2.69-8,17.26,17.26,0,0,1,7.31-5.48,26.16,26.16,0,0,1,10.21-1.93q16,0,21.41,11.27l-11.37,5q-3-5.49-9.74-5.48a10.22,10.22,0,0,0-5.48,1.27,3.69,3.69,0,0,0-2,3.19q0,3.66,6.9,5.49l7.61,1.82q7.73,1.93,11.63,5.89a13.36,13.36,0,0,1,3.9,9.75,14.12,14.12,0,0,1-2.89,8.78,19.06,19.06,0,0,1-7.92,5.93,28,28,0,0,1-11.11,2.14Q355.26,91.75,349.41,87.89Z"/><path class="cls-5" d="M400,89.77a14.22,14.22,0,0,1-5.28-3.2Q390,82,390,73.58V49.72h-9V38.35h9V23.73h13.3V38.35H416V49.72H403.26V71.14q0,4,1.73,5.68c.94,1.09,2.57,1.63,4.87,1.63a8.65,8.65,0,0,0,3.2-.51,25.71,25.71,0,0,0,3.3-1.72v13a24.91,24.91,0,0,1-9.24,1.72A21.12,21.12,0,0,1,400,89.77Z"/></svg>