<?xml version="1.0" encoding="utf-8"?>
<!-- Generator: Adobe Illustrator 22.0.0, SVG Export Plug-In . SVG Version: 6.00 Build 0)  -->
<svg version="1.1" id="Layer_4" xmlns="http://www.w3.org/2000/svg" xmlns:xlink="http://www.w3.org/1999/xlink" x="0px" y="0px"
	 viewBox="0 0 416.4 128" style="enable-background:new 0 0 416.4 128;" xml:space="preserve">
<style type="text/css">
	.st0{fill:#518DF2;}
	.st1{fill:#DB5247;}
	.st2{fill:#179D5C;}
	.st3{fill:#FCBF0C;}
	.st4{fill:#333333;}
</style>
<title>Artboard 1</title>
<path class="st0" d="M36.8,64.5c-3-6.4-6.8-12.3-10.3-18.4C18,31.4,9.5,16.7,1,2C0.7,1.5,0.4,0.9,0,0.2h22.8
	C35.2,21.7,47.6,43.3,60,64.8c3.5,6,7.2,11.9,10.7,17.8C67,89.3,63.2,96.1,59,102.6c-3.7-6.1-6.9-12.4-10.9-18.3
	C44.7,77.5,40.7,71,36.8,64.5z"/>
<path class="st1" d="M70.7,82.6c-3.6-5.9-7.3-11.8-10.7-17.8c-12.4-21.5-24.8-43-37.2-64.6c6.8,0,13.6,0,20.5-0.2
	c1.3,0,1.7,0.8,2.2,1.7c8.6,14.9,17.2,29.8,25.8,44.7c2.2,3.7,4.3,7.5,6.5,11.2c2.6,4,2.5,9.2-0.1,13.2
	C75.3,74.7,73.1,78.6,70.7,82.6z"/>
<path class="st2" d="M36.8,64.5c4,6.5,8,13,11.4,19.9L23,127.8H0c2.5-4.3,4.9-8.5,7.3-12.7C16.9,98.6,26.5,82,36.1,65.5
	C36.3,65.1,36.5,64.8,36.8,64.5z"/>
<path class="st3" d="M23,127.8l25.2-43.5c4,5.9,7.2,12.2,10.9,18.3c-4.6,8.1-9.2,16.2-13.9,24.2c-0.3,0.7-1,1.1-1.7,1.1
	C36.6,127.9,29.8,127.9,23,127.8z"/>
<path class="st4" d="M104.5,109.8c-1-0.5-1.7-1.3-2.3-2.3c-0.6-1.1-0.9-2.2-0.8-3.4c0-1.4,0.4-2.8,1.1-4.1c0.7-1.3,1.7-2.3,3-3
	c1.3-0.7,2.8-1.1,4.3-1.1c1,0,2.1,0.2,3,0.6c0.9,0.4,1.6,1,2.1,1.8l-2.1,1.7c-0.8-1.1-2-1.7-3.3-1.6c-1,0-1.9,0.2-2.7,0.7
	c-0.8,0.5-1.5,1.2-2,2c-0.5,0.8-0.7,1.8-0.7,2.8c0,0.8,0.2,1.5,0.5,2.2c0.3,0.6,0.8,1.1,1.4,1.4c0.6,0.3,1.3,0.5,2.1,0.5
	c0.8,0,1.5-0.2,2.2-0.5c0.7-0.4,1.4-0.9,1.9-1.4l1.7,1.9c-0.8,0.8-1.7,1.5-2.7,1.9c-1,0.4-2.2,0.6-3.3,0.6
	C106.7,110.6,105.6,110.3,104.5,109.8z"/>
<path class="st4" d="M127.8,109.7c-1-0.5-1.8-1.3-2.4-2.3c-0.6-1-0.9-2.2-0.9-3.4c0-1.4,0.3-2.8,1-4.1c0.7-1.3,1.7-2.3,2.9-3
	c1.3-0.8,2.8-1.1,4.3-1.1c1.2,0,2.4,0.3,3.4,0.8c1,0.5,1.8,1.3,2.4,2.3c0.6,1,0.9,2.2,0.8,3.3c0,1.4-0.3,2.8-1,4.1
	c-0.7,1.2-1.7,2.3-2.9,3c-1.3,0.8-2.8,1.1-4.3,1.1C130,110.6,128.9,110.3,127.8,109.7z M134.2,107.3c0.8-0.5,1.5-1.2,1.9-2
	c0.5-0.9,0.7-1.8,0.7-2.8c0-0.7-0.2-1.5-0.6-2.1c-0.4-0.6-0.9-1.1-1.5-1.4c-0.7-0.4-1.4-0.5-2.1-0.5c-1,0-1.9,0.2-2.7,0.7
	c-0.8,0.5-1.5,1.2-2,2c-0.5,0.8-0.7,1.8-0.7,2.8c0,0.8,0.2,1.5,0.6,2.1c0.4,0.6,0.9,1.1,1.5,1.5c0.7,0.4,1.4,0.5,2.1,0.5
	C132.4,108.1,133.3,107.8,134.2,107.3z"/>
<path class="st4" d="M152.8,109.8c-1-0.5-1.8-1.3-2.3-2.3c-0.6-1.1-0.9-2.2-0.8-3.4c0-2.9,1.6-5.6,4.1-7c1.3-0.7,2.8-1.1,4.3-1.1
	c1,0,2.1,0.2,3,0.6c0.8,0.4,1.6,1,2.1,1.8l-2.1,1.7c-0.8-1.1-2-1.7-3.4-1.6c-1,0-1.9,0.2-2.7,0.7c-0.8,0.5-1.5,1.2-2,2
	c-0.5,0.8-0.7,1.8-0.7,2.8c0,0.8,0.2,1.5,0.5,2.2c0.3,0.6,0.8,1.1,1.4,1.4c0.6,0.3,1.3,0.5,2.1,0.5c0.8,0,1.5-0.2,2.2-0.5
	c0.7-0.4,1.4-0.9,1.9-1.4l1.7,1.9c-0.8,0.8-1.7,1.5-2.7,1.9c-1,0.4-2.2,0.6-3.3,0.6C154.9,110.6,153.8,110.3,152.8,109.8z"/>
<path class="st4" d="M175.3,96.2h2.6l-1,5.6h5.9l1-5.6h2.6l-2.5,14h-2.6l1.1-5.9h-5.9l-1.1,5.9h-2.6L175.3,96.2z"/>
<path class="st4" d="M202.3,96.2h3.1l2.8,14h-2.8l-0.6-3.4h-5.4l-1.8,3.4h-3L202.3,96.2z M204.3,104.5l-0.6-3.5l-0.2-1.7h-0.2
	l-0.8,1.7l-1.8,3.5H204.3z"/>
<path class="st4" d="M221.4,96.2h5c0.8,0,1.6,0.1,2.3,0.5c0.6,0.3,1.1,0.7,1.4,1.3c0.3,0.5,0.5,1.1,0.5,1.7c0,0.8-0.2,1.5-0.7,2.1
	c-0.5,0.5-1.1,0.9-1.8,1.1v0.2c0.5,0.2,1,0.6,1.3,1.1c0.4,0.5,0.5,1.1,0.5,1.7c0,0.8-0.2,1.6-0.7,2.3c-0.5,0.7-1.2,1.2-1.9,1.5
	c-0.9,0.4-1.8,0.6-2.7,0.5H219L221.4,96.2z M225,107.8c0.6,0,1.2-0.2,1.7-0.5c0.4-0.3,0.7-0.9,0.7-1.4c0-0.5-0.2-0.9-0.5-1.2
	c-0.4-0.3-0.9-0.5-1.4-0.5h-2.8l-0.6,3.6H225z M225.8,101.9c0.6,0,1.2-0.1,1.6-0.5c0.4-0.3,0.7-0.8,0.6-1.3c0-0.4-0.1-0.8-0.4-1.1
	c-0.3-0.3-0.8-0.4-1.2-0.4h-2.7l-0.6,3.3L225.8,101.9z"/>
<path class="st4" d="M246.6,96.2h3.1l2.8,14h-2.8l-0.6-3.4h-5.4l-1.7,3.4h-3L246.6,96.2z M248.6,104.5l-0.6-3.5l-0.2-1.7h-0.2
	l-0.8,1.7l-1.8,3.5H248.6z"/>
<path class="st4" d="M265.7,96.2h3.3l2,9.9h0.2l5.5-9.9h3.5l-2.5,14H275l1.2-6.9l0.6-2.3h-0.2l-5.1,9.3h-2.1l-2-9.3h-0.2l-0.3,2.3
	l-1.2,6.9h-2.6L265.7,96.2z"/>
<path class="st4" d="M292.2,96.2h5c0.8,0,1.6,0.1,2.3,0.5c0.6,0.3,1.1,0.7,1.4,1.3c0.3,0.5,0.5,1.1,0.5,1.7c0,0.8-0.2,1.5-0.7,2.1
	c-0.5,0.5-1.1,0.9-1.8,1.1v0.2c0.5,0.2,1,0.6,1.3,1.1c0.4,0.5,0.5,1.1,0.5,1.7c0,0.8-0.2,1.6-0.7,2.3c-0.5,0.7-1.2,1.2-1.9,1.5
	c-0.9,0.4-1.8,0.6-2.7,0.5h-5.7L292.2,96.2z M295.7,107.8c0.6,0,1.2-0.2,1.7-0.5c0.4-0.3,0.7-0.9,0.7-1.4c0-0.5-0.2-0.9-0.5-1.2
	c-0.4-0.3-0.9-0.5-1.4-0.5h-2.8l-0.6,3.6H295.7z M296.4,101.9c0.6,0,1.2-0.1,1.6-0.5c0.4-0.3,0.7-0.8,0.6-1.3c0-0.4-0.1-0.8-0.5-1.1
	c-0.3-0.3-0.8-0.4-1.2-0.4h-2.7l-0.6,3.3L296.4,101.9z"/>
<path class="st4" d="M317.3,96.2h3.1l2.8,14h-2.8l-0.6-3.4h-5.4l-1.8,3.4h-3L317.3,96.2z M319.3,104.5l-0.6-3.5l-0.2-1.7h-0.2
	l-0.8,1.7l-1.8,3.5H319.3z"/>
<path class="st4" d="M346.9,107.9l2.6-2.2c1.2-1,2.3-1.9,3.2-2.7c0.5-0.4,0.9-0.8,1.3-1.3c0.2-0.4,0.4-0.8,0.4-1.2
	c0-0.4-0.2-0.8-0.5-1.1c-0.3-0.3-0.8-0.5-1.3-0.4c-0.5,0-1,0.2-1.4,0.5c-0.4,0.3-0.6,0.7-0.8,1.2l-2.3-1c0.3-0.9,0.9-1.7,1.7-2.2
	c0.9-0.6,1.9-0.9,3-0.9c0.7,0,1.5,0.2,2.1,0.5c0.6,0.3,1.1,0.7,1.5,1.3c0.4,0.6,0.5,1.2,0.5,1.8c0,0.8-0.2,1.6-0.7,2.3
	c-0.6,0.9-1.3,1.6-2.1,2.3l-3.7,3.2v0.1h5.3l-0.4,2.3h-8.9L346.9,107.9z"/>
<path class="st4" d="M369.5,109.9c-0.8-0.5-1.3-1.2-1.7-2c-0.4-1-0.6-2.1-0.6-3.2c0-1.4,0.3-2.7,0.9-4c0.5-1.2,1.4-2.2,2.4-3
	c1-0.8,2.2-1.2,3.5-1.2c1.8-0.1,3.5,1,4.2,2.7c0.4,1,0.6,2.1,0.6,3.2c0,1.4-0.3,2.8-0.9,4.1c-0.5,1.2-1.4,2.2-2.4,2.9
	c-1,0.7-2.2,1.1-3.5,1.1C371.2,110.6,370.3,110.3,369.5,109.9z M374.3,107.4c0.6-0.5,1.1-1.2,1.4-2c0.3-0.9,0.5-1.8,0.5-2.8
	c0.1-0.9-0.2-1.9-0.6-2.7c-0.4-0.6-1.1-1-1.8-1c-0.7,0-1.5,0.3-2,0.8c-0.6,0.6-1.1,1.3-1.4,2.1c-0.3,0.8-0.5,1.8-0.5,2.7
	c0,0.9,0.2,1.9,0.7,2.7c0.4,0.6,1,1,1.8,1C373,108.2,373.7,107.9,374.3,107.4z"/>
<path class="st4" d="M393,100.4l-2,1.3l-1.1-2l4.4-2.8h2l-2.4,13.4h-2.6L393,100.4z"/>
<path class="st4" d="M408,110.1c-0.6-0.3-1.2-0.8-1.5-1.3c-0.4-0.6-0.5-1.2-0.5-1.9c0-0.8,0.2-1.6,0.7-2.2c0.5-0.7,1.2-1.2,2-1.5
	V103c-0.4-0.3-0.6-0.6-0.9-1c-0.2-0.4-0.3-0.9-0.3-1.3c0-0.8,0.2-1.5,0.7-2.2c0.5-0.6,1.1-1.2,1.8-1.5c0.8-0.4,1.6-0.6,2.5-0.6
	c0.7,0,1.4,0.1,2,0.4c0.6,0.3,1,0.7,1.4,1.2c0.3,0.5,0.5,1.1,0.5,1.7c0,0.7-0.2,1.4-0.6,2c-0.4,0.6-0.9,1-1.6,1.3v0.2
	c0.5,0.3,0.8,0.7,1.1,1.1c0.3,0.5,0.4,1.1,0.4,1.7c0,0.8-0.2,1.7-0.7,2.3c-0.5,0.7-1.2,1.2-2,1.6c-0.9,0.4-1.8,0.6-2.8,0.6
	C409.5,110.6,408.7,110.4,408,110.1z M412.4,107.6c0.5-0.4,0.8-1,0.8-1.6c0-0.5-0.2-0.9-0.6-1.2c-0.4-0.3-0.9-0.5-1.4-0.5
	c-0.7,0-1.3,0.2-1.8,0.6c-0.5,0.4-0.8,0.9-0.8,1.6c0,0.5,0.2,0.9,0.5,1.2c0.4,0.3,0.9,0.5,1.4,0.4
	C411.2,108.2,411.9,108,412.4,107.6L412.4,107.6z M413.3,101.6c0.4-0.3,0.6-0.8,0.6-1.3c0-0.4-0.2-0.8-0.5-1.1
	c-0.4-0.3-0.8-0.4-1.3-0.4c-0.6,0-1.1,0.2-1.6,0.5c-0.4,0.3-0.7,0.8-0.6,1.3c0,0.4,0.2,0.8,0.5,1.1c0.4,0.3,0.8,0.4,1.3,0.4
	C412.3,102.1,412.8,102,413.3,101.6L413.3,101.6z"/>
<path class="st4" d="M100.7,17.4h24.6c6.9-0.2,13.7,1.4,19.8,4.6c5.5,2.9,10,7.4,13,12.8c3.1,5.8,4.7,12.4,4.6,19
	c0.1,6.6-1.4,13.2-4.6,19c-3,5.4-7.5,9.9-13,12.8c-6.1,3.2-12.9,4.7-19.8,4.6h-24.5V17.4z M124.7,77.1c7.8,0,13.8-2.1,18-6.2
	c4.2-4.2,6.2-9.9,6.2-17.1c0-7.2-2.1-12.9-6.2-17.1s-10.1-6.2-18-6.3h-10.3v46.7L124.7,77.1z"/>
<path class="st4" d="M171.4,88.2c-4.1-2.3-7.4-5.7-9.7-9.8c-2.4-4.3-3.6-9.1-3.5-14.1c0-4.8,1.2-9.5,3.4-13.8
	c2.2-4.2,5.5-7.6,9.5-10.1c4.1-2.5,8.8-3.8,13.6-3.8c4.8-0.1,9.6,1.1,13.8,3.5c3.8,2.2,6.8,5.5,8.8,9.4c2,4.1,3.1,8.7,3,13.3
	c0,1.5-0.1,3-0.3,4.5h-38.9c0.7,4.1,2.3,7.3,4.9,9.4c2.7,2.1,6,3.3,9.4,3.2c2.8,0.1,5.5-0.6,7.9-2c2.2-1.3,4-3.1,5.2-5.3l10.8,5.3
	c-5.3,9.2-13.3,13.8-24.1,13.8C180.5,91.8,175.7,90.6,171.4,88.2z M197.6,57.9c-0.2-1.7-0.8-3.4-1.8-4.8c-1.1-1.7-2.6-3-4.4-4
	c-2-1.1-4.3-1.6-6.6-1.6c-3-0.1-5.9,0.9-8.2,2.8c-2.3,2-4.1,4.6-4.9,7.6L197.6,57.9z"/>
<path class="st4" d="M200.8,38.3h15.1L229,72h0.8l13.3-33.7H258l-22.1,51.8h-13.2L200.8,38.3z"/>
<path class="st4" d="M253.9,17.4H300v13h-32.4v17.7h29.1v13h-29.1v29h-13.7V17.4z"/>
<path class="st4" d="M306.4,88.2c-4.1-2.3-7.4-5.7-9.7-9.8c-2.4-4.3-3.6-9.1-3.5-14.1c0-4.8,1.2-9.5,3.5-13.8
	c2.2-4.2,5.5-7.6,9.5-10.1c4.1-2.5,8.8-3.8,13.6-3.8c4.8-0.1,9.6,1.1,13.8,3.5c3.8,2.2,6.8,5.5,8.8,9.4c2,4.1,3.1,8.7,3,13.3
	c0,1.5-0.1,3-0.3,4.5h-38.9c0.7,4.1,2.3,7.3,4.9,9.4c2.7,2.1,6,3.3,9.4,3.2c2.8,0.1,5.5-0.6,7.9-2c2.2-1.3,4-3.1,5.2-5.3l10.8,5.3
	c-5.3,9.2-13.3,13.8-24.1,13.8C315.5,91.8,310.7,90.6,306.4,88.2z M332.6,57.9c-0.2-1.7-0.8-3.4-1.8-4.8c-1.1-1.7-2.6-3-4.4-4
	c-2-1.1-4.3-1.6-6.5-1.6c-3-0.1-5.9,0.9-8.2,2.8c-2.3,2-4.1,4.6-4.9,7.6L332.6,57.9z"/>
<path class="st4" d="M349.4,87.9c-3.7-2.4-6.6-5.9-8.2-10l11.9-5.2c0.9,2.3,2.5,4.2,4.6,5.5c2.1,1.3,4.5,1.9,7,1.9
	c2.1,0.1,4.2-0.3,6.1-1.2c1.5-0.6,2.5-2.1,2.4-3.8c0.1-1.6-0.8-3.1-2.3-3.9c-2.1-1.1-4.4-1.8-6.7-2.3l-6.1-1.3
	c-3.9-0.9-7.5-2.8-10.5-5.5c-2.7-2.6-4.3-6.2-4.2-10c0-2.9,0.9-5.7,2.7-8c1.9-2.5,4.4-4.3,7.3-5.5c3.2-1.3,6.7-2,10.2-1.9
	c10.7,0,17.8,3.8,21.4,11.3l-11.4,5c-2-3.7-5.2-5.5-9.7-5.5c-1.9-0.1-3.8,0.3-5.5,1.3c-1.2,0.6-2,1.8-2,3.2c0,2.4,2.3,4.3,6.9,5.5
	l7.6,1.8c5.2,1.3,9,3.3,11.6,5.9c2.6,2.6,4,6.1,3.9,9.8c0,3.2-1,6.3-2.9,8.8c-2.1,2.6-4.8,4.7-7.9,5.9c-3.5,1.5-7.3,2.2-11.1,2.1
	C358.4,91.8,353.3,90.5,349.4,87.9z"/>
<path class="st4" d="M400,89.8c-2-0.7-3.8-1.8-5.3-3.2c-3.1-3-4.7-7.4-4.7-13V49.7h-9V38.3h9V23.7h13.3v14.6H416v11.4h-12.7v21.4
	c0,2.7,0.6,4.6,1.7,5.7c0.9,1.1,2.6,1.6,4.9,1.6c1.1,0,2.2-0.1,3.2-0.5c1.1-0.5,2.2-1.1,3.3-1.7v13c-2.9,1.2-6.1,1.7-9.2,1.7
	C404.7,91,402.3,90.6,400,89.8z"/>
</svg>
