<!-- Generator: Adobe Illustrator 19.1.0, SVG Export Plug-In  -->
<svg version="1.1"
	 xmlns="http://www.w3.org/2000/svg" xmlns:xlink="http://www.w3.org/1999/xlink" xmlns:a="http://ns.adobe.com/AdobeSVGViewerExtensions/3.0/"
	 x="0px" y="0px" width="372.2px" height="72.9px" viewBox="0 0 372.2 72.9" style="enable-background:new 0 0 372.2 72.9;"
	 xml:space="preserve">
<style type="text/css">
	.st0{fill:#FFFFFF;}
	.st1{fill:#518EF3;}
	.st2{fill:#DC5247;}
	.st3{fill:#179E5C;}
	.st4{fill:#FDC00C;}
</style>
<defs>
</defs>
<g>
	<g>
		<path class="st0" d="M91.6,19.3c0,3.8-1.1,6.8-3.4,9.1c-2.5,2.7-5.9,4-10,4c-4,0-7.3-1.4-10.1-4.1c-2.7-2.7-4.1-6.1-4.1-10.1
			c0-4,1.4-7.4,4.1-10.1S74.2,4,78.2,4c2,0,3.9,0.4,5.7,1.1c1.8,0.7,3.2,1.7,4.4,3l-2.5,2.5c-0.8-1-1.9-1.8-3.3-2.4
			c-1.3-0.6-2.8-0.9-4.3-0.9c-3,0-5.5,1-7.5,3.1c-2,2.1-3,4.7-3,7.8s1,5.7,3,7.8c2.1,2.1,4.6,3.1,7.5,3.1c2.7,0,5-0.8,6.8-2.3
			c1.8-1.5,2.8-3.6,3.1-6.3h-9.9v-3.3h13.2C91.5,18,91.6,18.7,91.6,19.3z"/>
		<path class="st0" d="M95.9,31.8V4.6h8.3c4.2,0,7.5,1.3,10,3.8c2.5,2.5,3.8,5.8,3.8,9.9c0,4.1-1.3,7.4-3.8,9.9
			c-2.5,2.5-5.9,3.8-10,3.8H95.9z M99.4,7.9v20.6h4.8c3.2,0,5.7-0.9,7.5-2.7c1.8-1.8,2.7-4.3,2.7-7.6c0-3.2-0.9-5.7-2.7-7.5
			c-1.8-1.8-4.3-2.7-7.5-2.7H99.4z"/>
		<path class="st0" d="M148.4,19.3c0,3.8-1.1,6.8-3.4,9.1c-2.5,2.7-5.9,4-10,4c-4,0-7.3-1.4-10.1-4.1c-2.7-2.7-4.1-6.1-4.1-10.1
			c0-4,1.4-7.4,4.1-10.1S131.1,4,135,4c2,0,3.9,0.4,5.7,1.1c1.8,0.7,3.2,1.7,4.4,3l-2.5,2.5c-0.8-1-1.9-1.8-3.3-2.4
			c-1.3-0.6-2.8-0.9-4.3-0.9c-3,0-5.5,1-7.5,3.1c-2,2.1-3,4.7-3,7.8s1,5.7,3,7.8c2.1,2.1,4.6,3.1,7.5,3.1c2.7,0,5-0.8,6.8-2.3
			c1.8-1.5,2.8-3.6,3.1-6.3H135v-3.3h13.2C148.4,18,148.4,18.7,148.4,19.3z"/>
		<path class="st0" d="M161.1,31.8V4.6h8.3c4.2,0,7.5,1.3,10,3.8c2.5,2.5,3.8,5.8,3.8,9.9c0,4.1-1.3,7.4-3.8,9.9
			c-2.5,2.5-5.9,3.8-10,3.8H161.1z M164.6,7.9v20.6h4.8c3.2,0,5.7-0.9,7.5-2.7c1.8-1.8,2.7-4.3,2.7-7.6c0-3.2-0.9-5.7-2.7-7.5
			c-1.8-1.8-4.3-2.7-7.5-2.7H164.6z"/>
		<path class="st0" d="M194.6,32.5c-2.7,0-5-0.9-6.8-2.8c-1.8-1.9-2.7-4.3-2.7-7.1c0-2.8,0.9-5.2,2.6-7.1c1.7-1.9,3.9-2.8,6.6-2.8
			c2.8,0,5,0.9,6.6,2.7c1.6,1.8,2.5,4.3,2.5,7.5l0,0.4h-14.7c0.1,1.8,0.7,3.3,1.8,4.4s2.6,1.7,4.2,1.7c2.2,0,4-1.1,5.3-3.4l3.1,1.5
			c-0.8,1.6-2,2.8-3.5,3.7S196.5,32.5,194.6,32.5z M189,20.3h10.7c-0.1-1.3-0.6-2.4-1.6-3.2c-1-0.9-2.2-1.3-3.8-1.3
			c-1.3,0-2.5,0.4-3.4,1.2C189.9,17.8,189.3,18.9,189,20.3z"/>
		<path class="st0" d="M215.3,31.8h-3.5l-7.5-18.7h3.8l5.5,14.5h0.1l5.6-14.5h3.7L215.3,31.8z"/>
		<path class="st0" d="M229.3,20.2v11.7h-3.5V4.6h15.9v3.4h-12.4v9h11.2v3.3H229.3z"/>
		<path class="st0" d="M252.3,32.5c-2.7,0-5-0.9-6.8-2.8c-1.8-1.9-2.7-4.3-2.7-7.1c0-2.8,0.9-5.2,2.6-7.1c1.7-1.9,3.9-2.8,6.6-2.8
			c2.8,0,5,0.9,6.6,2.7c1.6,1.8,2.5,4.3,2.5,7.5l0,0.4h-14.7c0.1,1.8,0.7,3.3,1.8,4.4s2.6,1.7,4.2,1.7c2.2,0,4-1.1,5.3-3.4l3.1,1.5
			c-0.8,1.6-2,2.8-3.5,3.7C255.9,32,254.2,32.5,252.3,32.5z M246.7,20.3h10.7c-0.1-1.3-0.6-2.4-1.6-3.2c-1-0.9-2.2-1.3-3.8-1.3
			c-1.3,0-2.5,0.4-3.4,1.2C247.7,17.8,247,18.9,246.7,20.3z"/>
		<path class="st0" d="M278.8,26.7c0,1.6-0.7,3-2.1,4.1c-1.4,1.1-3.2,1.7-5.4,1.7c-1.9,0-3.5-0.5-5-1.5c-1.4-1-2.4-2.3-3-3.9
			l3.1-1.3c0.5,1.1,1.1,2,2,2.6c0.9,0.6,1.8,0.9,2.9,0.9c1.1,0,2.1-0.2,2.8-0.7c0.7-0.5,1.1-1.1,1.1-1.7c0-1.2-0.9-2.1-2.7-2.6
			l-3.2-0.8c-3.6-0.9-5.4-2.7-5.4-5.3c0-1.7,0.7-3.1,2.1-4.1c1.4-1,3.2-1.5,5.3-1.5c1.7,0,3.1,0.4,4.5,1.2c1.3,0.8,2.3,1.8,2.8,3.2
			l-3.1,1.3c-0.4-0.8-0.9-1.4-1.7-1.8c-0.8-0.4-1.7-0.7-2.7-0.7c-0.9,0-1.7,0.2-2.5,0.7c-0.7,0.5-1.1,1-1.1,1.7c0,1.1,1,1.8,3,2.3
			l2.8,0.7C277,22,278.8,23.9,278.8,26.7z"/>
		<path class="st0" d="M289.1,32.2c-1.5,0-2.8-0.5-3.8-1.4c-1-0.9-1.5-2.2-1.5-3.9V16.4h-3.3v-3.2h3.3V7.5h3.5v5.7h4.6v3.2h-4.6v9.3
			c0,1.2,0.2,2.1,0.7,2.5c0.5,0.4,1,0.7,1.6,0.7c0.3,0,0.6,0,0.8-0.1c0.3-0.1,0.5-0.1,0.7-0.2l1.1,3.1
			C291.4,32,290.3,32.2,289.1,32.2z"/>
	</g>
	<g>
		<path class="st0" d="M78.2,68.3c-4,0-7.4-1.4-10.1-4.1c-2.7-2.7-4-6.1-4-10.2c0-4.1,1.3-7.4,4-10.1c2.7-2.7,6.1-4.1,10.1-4.1
			c4.1,0,7.5,1.5,10,4.5l-2.5,2.4c-2-2.4-4.5-3.5-7.5-3.5c-3,0-5.5,1-7.6,3c-2,2-3,4.6-3,7.8c0,3.2,1,5.8,3,7.8c2,2,4.6,3,7.6,3
			c3.2,0,5.9-1.3,8.3-4l2.6,2.5c-1.3,1.5-2.9,2.7-4.8,3.6C82.4,67.8,80.4,68.3,78.2,68.3z"/>
		<path class="st0" d="M90.7,58.3c0-2.9,0.9-5.2,2.7-7.1c1.8-1.9,4.1-2.8,6.9-2.8c2.8,0,5.1,0.9,6.9,2.8c1.8,1.9,2.7,4.3,2.7,7.1
			c0,2.9-0.9,5.3-2.7,7.1c-1.8,1.9-4.1,2.8-6.9,2.8c-2.8,0-5.1-0.9-6.9-2.8C91.6,63.6,90.7,61.2,90.7,58.3z M94.2,58.3
			c0,2,0.6,3.6,1.8,4.9c1.2,1.2,2.6,1.9,4.3,1.9c1.7,0,3.2-0.6,4.3-1.9c1.2-1.2,1.8-2.9,1.8-4.9c0-2-0.6-3.6-1.8-4.8
			c-1.2-1.3-2.6-1.9-4.3-1.9c-1.7,0-3.1,0.6-4.3,1.9C94.8,54.7,94.2,56.3,94.2,58.3z"/>
		<path class="st0" d="M121.6,68.3c-2.8,0-5.1-0.9-6.9-2.8c-1.8-1.9-2.7-4.3-2.7-7.1c0-2.9,0.9-5.2,2.7-7.1c1.8-1.9,4.1-2.8,6.9-2.8
			c1.9,0,3.6,0.5,5,1.4c1.4,1,2.5,2.3,3.2,3.9l-3.2,1.3c-1-2.3-2.7-3.5-5.2-3.5c-1.6,0-3,0.6-4.2,1.9c-1.1,1.3-1.7,2.9-1.7,4.8
			c0,1.9,0.6,3.5,1.7,4.8c1.2,1.3,2.6,1.9,4.2,1.9c2.6,0,4.4-1.2,5.4-3.5l3.1,1.3c-0.7,1.7-1.8,3-3.2,3.9
			C125.2,67.8,123.6,68.3,121.6,68.3z"/>
		<path class="st0" d="M133,40.4h3.5V49l-0.2,2.6h0.2c0.5-0.9,1.4-1.7,2.5-2.3c1.1-0.6,2.3-0.9,3.4-0.9c2.3,0,4,0.7,5.3,2
			c1.2,1.3,1.8,3.2,1.8,5.6v11.7H146v-11c0-3.4-1.5-5-4.5-5c-1.4,0-2.6,0.6-3.6,1.8c-1,1.2-1.5,2.6-1.5,4.1v10.2H133V40.4z"/>
		<path class="st0" d="M160.5,48.4c2.6,0,4.6,0.7,6.1,2.1s2.2,3.3,2.2,5.7v11.5h-3.4v-2.6h-0.2c-1.4,2.1-3.4,3.2-5.8,3.2
			c-2.1,0-3.8-0.6-5.2-1.8c-1.4-1.2-2.1-2.7-2.1-4.6c0-1.9,0.7-3.5,2.2-4.6c1.5-1.1,3.4-1.7,5.8-1.7c2.1,0,3.8,0.4,5.1,1.1v-0.8
			c0-1.2-0.5-2.3-1.4-3.1c-1-0.9-2.1-1.3-3.4-1.3c-2,0-3.5,0.8-4.6,2.5L153,52C154.7,49.6,157.2,48.4,160.5,48.4z M156,61.9
			c0,0.9,0.4,1.7,1.2,2.3c0.8,0.6,1.7,0.9,2.7,0.9c1.5,0,2.8-0.5,3.9-1.6c1.2-1.1,1.7-2.4,1.7-3.8c-1.1-0.9-2.6-1.3-4.6-1.3
			c-1.4,0-2.6,0.3-3.6,1C156.5,60.1,156,60.9,156,61.9z"/>
		<path class="st0" d="M182.7,68.3c-1.4,0-2.6-0.3-3.8-0.9c-1.1-0.6-2-1.4-2.6-2.3h-0.2v2.6h-3.4V40.4h3.5V49l-0.2,2.6h0.2
			c0.6-1,1.5-1.7,2.6-2.3c1.1-0.6,2.4-0.9,3.8-0.9c2.5,0,4.5,1,6.2,2.9c1.8,2,2.6,4.3,2.6,7c0,2.8-0.9,5.1-2.6,7
			C187.3,67.3,185.2,68.3,182.7,68.3z M182.1,65.1c1.7,0,3.1-0.6,4.2-1.9c1.1-1.2,1.7-2.9,1.7-4.8c0-2-0.6-3.6-1.7-4.8
			c-1.1-1.3-2.6-1.9-4.2-1.9c-1.7,0-3.1,0.6-4.3,1.9c-1.1,1.3-1.7,2.9-1.7,4.8c0,2,0.6,3.6,1.7,4.9C179,64.4,180.4,65.1,182.1,65.1z
			"/>
		<path class="st0" d="M201.9,48.4c2.6,0,4.6,0.7,6.1,2.1c1.5,1.4,2.2,3.3,2.2,5.7v11.5h-3.4v-2.6h-0.2c-1.4,2.1-3.4,3.2-5.8,3.2
			c-2.1,0-3.8-0.6-5.2-1.8c-1.4-1.2-2.1-2.7-2.1-4.6c0-1.9,0.7-3.5,2.2-4.6c1.5-1.1,3.4-1.7,5.8-1.7c2.1,0,3.8,0.4,5.1,1.1v-0.8
			c0-1.2-0.5-2.3-1.4-3.1c-1-0.9-2.1-1.3-3.4-1.3c-2,0-3.5,0.8-4.6,2.5l-3.1-1.9C196,49.6,198.5,48.4,201.9,48.4z M197.3,61.9
			c0,0.9,0.4,1.7,1.2,2.3c0.8,0.6,1.7,0.9,2.7,0.9c1.5,0,2.8-0.5,3.9-1.6c1.2-1.1,1.7-2.4,1.7-3.8c-1.1-0.9-2.6-1.3-4.6-1.3
			c-1.4,0-2.6,0.3-3.6,1C197.8,60.1,197.3,60.9,197.3,61.9z"/>
		<path class="st0" d="M217.7,67.7h-3.5V49h3.4v2.6h0.2c0.5-0.9,1.4-1.7,2.5-2.3c1.1-0.6,2.2-0.9,3.3-0.9c1.4,0,2.6,0.3,3.6,1
			c1,0.6,1.8,1.5,2.3,2.6c1.5-2.4,3.7-3.6,6.4-3.6c2.2,0,3.8,0.7,5,2c1.2,1.3,1.8,3.2,1.8,5.6v11.7H239V56.5c0-1.8-0.3-3-1-3.8
			c-0.6-0.8-1.7-1.2-3.2-1.2c-1.3,0-2.5,0.6-3.4,1.7c-0.9,1.1-1.4,2.5-1.4,4v10.3h-3.5V56.5c0-1.8-0.3-3-1-3.8
			c-0.6-0.8-1.7-1.2-3.2-1.2c-1.3,0-2.5,0.6-3.4,1.7c-0.9,1.1-1.4,2.5-1.4,4V67.7z"/>
		<path class="st0" d="M256.5,68.3c-1.4,0-2.6-0.3-3.8-0.9c-1.1-0.6-2-1.4-2.6-2.3H250v2.6h-3.4V40.4h3.5V49l-0.2,2.6h0.2
			c0.6-1,1.5-1.7,2.6-2.3c1.1-0.6,2.4-0.9,3.8-0.9c2.5,0,4.5,1,6.2,2.9c1.8,2,2.6,4.3,2.6,7c0,2.8-0.9,5.1-2.6,7
			C261.1,67.3,259,68.3,256.5,68.3z M256,65.1c1.7,0,3.1-0.6,4.2-1.9c1.1-1.2,1.7-2.9,1.7-4.8c0-2-0.6-3.6-1.7-4.8
			c-1.1-1.3-2.6-1.9-4.2-1.9c-1.7,0-3.1,0.6-4.3,1.9c-1.1,1.3-1.7,2.9-1.7,4.8c0,2,0.6,3.6,1.7,4.9C252.8,64.4,254.2,65.1,256,65.1z
			"/>
		<path class="st0" d="M275.7,48.4c2.6,0,4.6,0.7,6.1,2.1s2.2,3.3,2.2,5.7v11.5h-3.4v-2.6h-0.2c-1.4,2.1-3.4,3.2-5.8,3.2
			c-2.1,0-3.8-0.6-5.2-1.8c-1.4-1.2-2.1-2.7-2.1-4.6c0-1.9,0.7-3.5,2.2-4.6c1.5-1.1,3.4-1.7,5.8-1.7c2.1,0,3.8,0.4,5.1,1.1v-0.8
			c0-1.2-0.5-2.3-1.4-3.1c-1-0.9-2.1-1.3-3.4-1.3c-2,0-3.5,0.8-4.6,2.5l-3.1-1.9C269.8,49.6,272.4,48.4,275.7,48.4z M271.1,61.9
			c0,0.9,0.4,1.7,1.2,2.3c0.8,0.6,1.7,0.9,2.7,0.9c1.5,0,2.8-0.5,3.9-1.6c1.2-1.1,1.7-2.4,1.7-3.8c-1.1-0.9-2.6-1.3-4.6-1.3
			c-1.4,0-2.6,0.3-3.6,1C271.6,60.1,271.1,60.9,271.1,61.9z"/>
		<path class="st0" d="M312.4,64.3v3.4h-16.6v-3.5l6.7-6.8c2.3-2.3,3.8-4,4.7-5.2c0.9-1.2,1.3-2.4,1.3-3.6c0-1.1-0.4-2.1-1.3-2.9
			c-0.9-0.8-2-1.2-3.4-1.2c-1.2,0-2.2,0.4-3.1,1.1c-0.9,0.7-1.4,1.6-1.7,2.6l-3.2-1.3c0.5-1.6,1.5-3,2.9-4.1
			c1.4-1.1,3.1-1.7,5.1-1.7c2.4,0,4.3,0.7,5.9,2.2c1.6,1.4,2.4,3.2,2.4,5.3c0,2.5-1.4,5.2-4.2,8.2l-7.6,7.7H312.4z"/>
		<path class="st0" d="M315.7,54.6c0-4,1-7.2,2.9-9.8c2-2.6,4.5-3.8,7.5-3.8c3.1,0,5.6,1.3,7.5,3.9c2,2.6,2.9,5.8,2.9,9.7
			c0,3.9-1,7.2-2.9,9.8c-2,2.6-4.5,3.8-7.5,3.8c-3.1,0-5.6-1.3-7.5-3.8C316.7,61.8,315.7,58.5,315.7,54.6z M333.1,54.6
			c0-3-0.6-5.5-1.9-7.4c-1.2-1.9-2.9-2.9-5-2.9c-2.1,0-3.7,1-5,2.9c-1.3,1.9-1.9,4.4-1.9,7.4c0,3,0.6,5.5,1.9,7.4
			c1.2,1.9,2.9,2.9,5,2.9c2.1,0,3.7-1,5-2.9C332.5,60.1,333.1,57.6,333.1,54.6z"/>
		<path class="st0" d="M349.4,41.6v26.1h-3.5V45.9l-5.1,2.2l-1.3-3l7.7-3.6H349.4z"/>
		<path class="st0" d="M364,51.1c2.1,0,4,0.8,5.6,2.5c1.7,1.7,2.5,3.6,2.5,5.9c0,2.3-0.9,4.4-2.7,6.1c-1.8,1.7-3.9,2.6-6.2,2.6
			c-2.5,0-4.6-0.9-6.4-2.6c-1.7-1.7-2.6-3.8-2.6-6.1c0-2.1,0.9-4.5,2.6-7.2l7.6-11.3l2.8,1.9l-6.4,8.9l0.1,0.1
			C361.7,51.4,362.7,51.1,364,51.1z M357.9,59.6c0,1.5,0.5,2.8,1.6,3.8c1,1,2.3,1.5,3.8,1.5c1.5,0,2.8-0.5,3.8-1.5
			c1-1,1.6-2.3,1.6-3.8c0-1.5-0.5-2.7-1.6-3.8c-1-1-2.3-1.6-3.8-1.6c-1.4,0-2.7,0.5-3.8,1.6C358.4,56.8,357.9,58.1,357.9,59.6z"/>
	</g>
	<path class="st1" d="M20.9,36.7c-1.7-3.6-3.9-7-5.9-10.5C10.2,17.9,5.4,9.5,0.6,1.2C0.4,0.8,0.2,0.5,0,0.1c4.4,0,8.7,0,13,0
		C20,12.4,27.1,24.6,34.2,36.9c2,3.4,4.1,6.8,6.1,10.1c-2.2,3.8-4.3,7.7-6.7,11.4c-2.1-3.5-3.9-7.1-6.2-10.4
		C25.5,44.1,23.2,40.4,20.9,36.7z"/>
	<path class="st2" d="M40.3,47c-2-3.4-4.1-6.7-6.1-10.1C27.1,24.6,20,12.4,13,0.1c3.9,0,7.8,0,11.7-0.1c0.8,0,1,0.5,1.2,0.9
		c4.9,8.5,9.8,17,14.7,25.4c1.2,2.1,2.4,4.3,3.7,6.4c1.5,2.5,1.4,5-0.1,7.5C42.9,42.5,41.6,44.8,40.3,47z"/>
	<path class="st3" d="M20.9,36.7c2.3,3.7,4.5,7.4,6.5,11.3c-4.8,8.3-9.6,16.5-14.3,24.8c-4.3,0-8.6,0-13.1,0
		c1.4-2.4,2.8-4.8,4.2-7.2c5.4-9.4,10.9-18.8,16.4-28.3C20.6,37.1,20.8,36.9,20.9,36.7z"/>
	<path class="st4" d="M13.1,72.8c4.8-8.3,9.6-16.5,14.3-24.8c2.3,3.3,4.1,6.9,6.2,10.4c-2.6,4.6-5.3,9.2-7.9,13.8
		c-0.2,0.4-0.5,0.6-1,0.6C20.9,72.8,17,72.8,13.1,72.8z"/>
</g>
</svg>
