<?xml version="1.0" encoding="utf-8"?>
<!-- Generator: Adobe Illustrator 22.0.0, SVG Export Plug-In . SVG Version: 6.00 Build 0)  -->
<svg version="1.1" id="Layer_4" xmlns="http://www.w3.org/2000/svg" xmlns:xlink="http://www.w3.org/1999/xlink" x="0px" y="0px"
	 viewBox="0 0 2111.3 200" style="enable-background:new 0 0 2111.3 200;" xml:space="preserve">
<style type="text/css">
	.st0{fill:#999999;}
</style>
<path id="XMLID_259_" class="st0" d="M32.3,0H0l92.3,160l16.2-28L32.3,0z"/>
<path id="XMLID_258_" class="st0" d="M120.9,91L68.3,0H36.1l74.3,128.8l10.5-18.2c1.7-2.8,2.8-6.2,2.8-9.8
	C123.6,97.2,122.6,93.9,120.9,91L120.9,91z"/>
<path id="XMLID_257_" class="st0" d="M56.3,104.1L0.9,200h32.3l39.3-68L56.3,104.1z"/>
<path id="XMLID_256_" class="st0" d="M74.3,135.3L37,200h32.2l21.3-36.8L74.3,135.3L74.3,135.3z"/>
<path class="st0" d="M243,172.7c-12.7-7.3-22.7-17.4-30.2-30.2c-7.5-12.8-11.2-27-11.2-42.5c0-15.5,3.7-29.7,11.2-42.5
	c7.5-12.8,17.5-22.9,30.2-30.2c12.7-7.3,26.5-11,41.6-11c11.8,0,22.9,2.1,33.2,6.3c10.4,4.2,18.9,10.1,25.6,17.7l-13.6,13.6
	c-5.1-6.3-11.6-11.1-19.5-14.4c-7.9-3.4-16.4-5-25.5-5c-11.3,0-21.9,2.7-31.7,8.2c-9.8,5.4-17.6,13.1-23.5,23
	c-5.9,9.9-8.8,21.4-8.8,34.3c0,13,2.9,24.4,8.8,34.3c5.9,9.9,13.8,17.6,23.6,23c9.8,5.4,20.4,8.2,31.5,8.2c10.7,0,19.7-1.7,27-5
	c7.2-3.4,13.5-7.8,18.7-13.3c3.9-4.2,7-9.2,9.4-15.1c2.4-5.9,3.9-12.4,4.5-19.6H285V94.9h77c0.7,4.2,1.1,8.1,1.1,11.6
	c0,9.8-1.6,19.4-4.7,28.8c-3.1,9.3-8.1,17.5-15,24.5c-14.8,16-34.4,23.9-58.8,23.9C269.5,183.7,255.6,180,243,172.7z"/>
<path class="st0" d="M391.3,19.9h48.3c16.4,0,30.7,3.4,43,10.2c12.2,6.8,21.6,16.2,28.2,28.3c6.6,12.1,9.8,26,9.8,41.6
	c0,15.7-3.3,29.5-9.8,41.6c-6.6,12.1-16,21.5-28.2,28.3c-12.2,6.8-26.6,10.2-43,10.2h-48.3V19.9z M439.6,162
	c18.9,0,34-5.4,45.1-16.3c11.1-10.9,16.7-26.1,16.7-45.6c0-19.5-5.6-34.8-16.7-45.6C473.6,43.5,458.6,38,439.6,38h-29.5v124H439.6z"
	/>
<path class="st0" d="M582.1,172.7c-12.7-7.3-22.7-17.4-30.2-30.2c-7.5-12.8-11.2-27-11.2-42.5c0-15.5,3.7-29.7,11.2-42.5
	c7.5-12.8,17.5-22.9,30.2-30.2c12.7-7.3,26.5-11,41.6-11c11.8,0,22.9,2.1,33.2,6.3c10.4,4.2,18.9,10.1,25.6,17.7L669,53.9
	c-5.1-6.3-11.6-11.1-19.5-14.4c-7.9-3.4-16.4-5-25.5-5c-11.3,0-21.9,2.7-31.7,8.2c-9.8,5.4-17.6,13.1-23.5,23
	C562.9,75.6,560,87,560,100c0,13,2.9,24.4,8.8,34.3c5.9,9.9,13.8,17.6,23.6,23c9.8,5.4,20.4,8.2,31.5,8.2c10.7,0,19.7-1.7,27-5
	c7.2-3.4,13.5-7.8,18.7-13.3c3.9-4.2,7-9.2,9.4-15.1c2.4-5.9,3.9-12.4,4.5-19.6h-59.3V94.9h77c0.7,4.2,1.1,8.1,1.1,11.6
	c0,9.8-1.6,19.4-4.7,28.8c-3.1,9.3-8.1,17.5-15,24.5c-14.8,16-34.4,23.9-58.8,23.9C608.7,183.7,594.8,180,582.1,172.7z"/>
<path class="st0" d="M810.8,172.7c-12.7-7.3-22.6-17.3-29.9-30.1c-7.2-12.8-10.9-27-10.9-42.6c0-15.7,3.6-29.9,10.9-42.6
	c7.2-12.8,17.2-22.8,29.9-30.1c12.7-7.3,26.8-11,42.3-11c11.9,0,22.9,2.3,32.8,6.8c9.9,4.6,18.5,11,25.8,19.4l-13.6,13.2
	c-6.1-7.3-12.8-12.7-20-16.1c-7.2-3.4-15.5-5.1-24.9-5.1c-11.6,0-22.3,2.7-32,8.2c-9.7,5.4-17.4,13.1-23.2,23
	c-5.7,9.9-8.6,21.4-8.6,34.3c0,13,2.9,24.4,8.6,34.3c5.7,9.9,13.5,17.6,23.2,23c9.7,5.4,20.4,8.2,32,8.2c19.4,0,35.9-8,49.4-23.9
	l13.9,13.4c-7.5,8.8-16.6,15.8-27.5,20.9c-10.9,5.1-22.8,7.7-35.8,7.7C837.6,183.7,823.5,180,810.8,172.7z"/>
<path class="st0" d="M957.8,175.6c-9-5.4-15.9-12.7-20.9-21.9c-5-9.2-7.5-19.5-7.5-30.7c0-11.2,2.5-21.4,7.5-30.7
	c5-9.2,12-16.6,20.9-21.9c8.9-5.4,19-8.1,30.2-8.1c11.2,0,21.3,2.7,30.2,8.1c8.9,5.4,15.9,12.7,20.9,21.9c5,9.3,7.5,19.5,7.5,30.7
	c0,11.2-2.5,21.4-7.5,30.7c-5,9.3-12,16.6-20.9,21.9c-9,5.4-19,8.1-30.2,8.1C976.8,183.7,966.8,181,957.8,175.6z M1007.6,161.2
	c6-3.5,10.9-8.5,14.5-15.1c3.7-6.6,5.5-14.2,5.5-23c0-8.8-1.8-16.5-5.5-23c-3.7-6.6-8.5-11.6-14.5-15.1c-6-3.5-12.6-5.3-19.6-5.3
	c-7,0-13.6,1.8-19.7,5.3c-6.1,3.5-11,8.5-14.7,15.1c-3.7,6.6-5.5,14.2-5.5,23c0,8.8,1.8,16.5,5.5,23c3.7,6.6,8.5,11.6,14.7,15.1
	c6.1,3.5,12.7,5.3,19.7,5.3C995,166.5,1001.5,164.7,1007.6,161.2z"/>
<path class="st0" d="M1090.7,175.7c-8.8-5.3-15.7-12.5-20.6-21.7c-4.9-9.2-7.4-19.5-7.4-31c0-11.5,2.5-21.8,7.4-31.1
	c4.9-9.2,11.8-16.5,20.6-21.7c8.8-5.2,18.7-7.8,29.8-7.8c12.4,0,22.8,2.9,31.2,8.6c8.4,5.7,14.4,13.4,18,22.9l-17.2,7.2
	c-2.8-7-7-12.3-12.6-16c-5.6-3.7-12.3-5.5-20.2-5.5c-6.7,0-13,1.8-18.8,5.5c-5.8,3.7-10.5,8.8-14,15.3c-3.5,6.6-5.3,14.1-5.3,22.6
	c0,8.5,1.8,16,5.3,22.6c3.5,6.6,8.2,11.7,14,15.3c5.8,3.7,12.1,5.5,18.8,5.5c8.1,0,15-1.9,20.8-5.6c5.8-3.7,10.1-9,13-15.9l17,7.2
	c-3.9,9.4-10.1,17-18.7,22.8c-8.6,5.8-19,8.7-31.2,8.7C1109.4,183.7,1099.5,181,1090.7,175.7z"/>
<path class="st0" d="M1190.9,19.9h19v47.2l-0.9,15.7h0.9c3.1-5.8,8.1-10.7,14.9-14.5c6.8-3.9,14.2-5.8,22.3-5.8
	c13.9,0,24.5,4.1,31.8,12.2c7.3,8.1,11,18.9,11,32.3v73.2h-19v-70.3c0-10.3-2.6-17.9-7.8-22.8c-5.2-4.9-12-7.4-20.4-7.4
	c-6,0-11.4,1.8-16.4,5.4c-5,3.6-8.9,8.2-11.9,13.9c-2.9,5.7-4.4,11.6-4.4,17.7v63.5h-19V19.9z"/>
<path class="st0" d="M1330.1,178.8c-6.6-3.3-11.6-7.8-15.2-13.5c-3.6-5.7-5.4-12.3-5.4-19.6c0-12.1,4.5-21.5,13.6-28.3
	c9.1-6.8,20.6-10.2,34.5-10.2c6.9,0,13.2,0.7,19.1,2.2c5.9,1.5,10.4,3.2,13.5,5.1v-6.9c0-8.5-3-15.3-8.9-20.5
	c-6-5.1-13.5-7.7-22.6-7.7c-6.4,0-12.3,1.4-17.7,4.1c-5.4,2.8-9.6,6.6-12.8,11.5L1314,84.3c4.5-6.9,10.6-12.2,18.5-16.1
	c7.8-3.9,16.5-5.8,26.1-5.8c15.5,0,27.7,4.1,36.6,12.2c8.9,8.1,13.3,19.2,13.3,33.2v72.3h-18.1v-16.3h-0.9
	c-3.3,5.5-8.2,10.2-14.8,14.1c-6.6,3.9-13.9,5.8-22.1,5.8C1344.1,183.7,1336.7,182,1330.1,178.8z M1372.2,162
	c5.5-3.3,9.9-7.7,13.2-13.2c3.3-5.5,4.9-11.6,4.9-18.1c-3.6-2.4-8-4.3-13.2-5.8c-5.2-1.5-10.7-2.2-16.6-2.2
	c-10.4,0-18.3,2.2-23.6,6.5c-5.3,4.3-7.9,9.9-7.9,16.8c0,6.3,2.4,11.3,7.2,15.2c4.8,3.9,10.8,5.8,18.1,5.8
	C1360.7,166.9,1366.7,165.3,1372.2,162z"/>
<path class="st0" d="M1469.4,177.8c-6.9-4-12.1-8.8-15.5-14.4h-0.9v16.8h-18.1V19.9h19v47.2l-0.9,15.9h0.9
	c3.4-5.8,8.6-10.7,15.5-14.7c6.9-4,14.7-5.9,23.4-5.9c10.1,0,19.4,2.6,27.7,7.8c8.4,5.2,14.9,12.5,19.7,21.7
	c4.8,9.3,7.2,19.6,7.2,31.1c0,11.6-2.4,22-7.2,31.2c-4.8,9.2-11.3,16.4-19.7,21.6c-8.4,5.2-17.6,7.8-27.7,7.8
	C1484.1,183.7,1476.3,181.7,1469.4,177.8z M1509.1,161.1c5.8-3.6,10.5-8.7,14-15.3c3.5-6.6,5.3-14.2,5.3-22.7
	c0-8.5-1.8-16.1-5.3-22.7c-3.5-6.6-8.2-11.7-14-15.3c-5.8-3.6-12-5.4-18.6-5.4c-6.6,0-12.8,1.8-18.6,5.4
	c-5.8,3.6-10.4,8.7-13.9,15.2c-3.4,6.6-5.1,14.2-5.1,22.8c0,8.7,1.7,16.3,5.1,22.8c3.4,6.6,8.1,11.6,13.9,15.2
	c5.8,3.6,12,5.4,18.6,5.4C1497.1,166.5,1503.3,164.7,1509.1,161.1z"/>
<path class="st0" d="M1583.6,178.8c-6.6-3.3-11.6-7.8-15.2-13.5c-3.6-5.7-5.4-12.3-5.4-19.6c0-12.1,4.5-21.5,13.6-28.3
	c9.1-6.8,20.6-10.2,34.5-10.2c6.9,0,13.2,0.7,19.1,2.2c5.9,1.5,10.4,3.2,13.5,5.1v-6.9c0-8.5-3-15.3-8.9-20.5
	c-6-5.1-13.5-7.7-22.6-7.7c-6.4,0-12.3,1.4-17.7,4.1c-5.4,2.8-9.6,6.6-12.8,11.5l-14.3-10.7c4.5-6.9,10.6-12.2,18.5-16.1
	c7.8-3.9,16.5-5.8,26.1-5.8c15.5,0,27.7,4.1,36.6,12.2c8.9,8.1,13.3,19.2,13.3,33.2v72.3h-18.1v-16.3h-0.9
	c-3.3,5.5-8.2,10.2-14.8,14.1c-6.6,3.9-13.9,5.8-22.1,5.8C1597.6,183.7,1590.2,182,1583.6,178.8z M1625.7,162
	c5.5-3.3,9.9-7.7,13.2-13.2c3.3-5.5,4.9-11.6,4.9-18.1c-3.6-2.4-8-4.3-13.2-5.8c-5.2-1.5-10.7-2.2-16.6-2.2
	c-10.4,0-18.3,2.2-23.6,6.5c-5.3,4.3-7.9,9.9-7.9,16.8c0,6.3,2.4,11.3,7.2,15.2c4.8,3.9,10.8,5.8,18.1,5.8
	C1614.2,166.9,1620.2,165.3,1625.7,162z"/>
<path class="st0" d="M1688.3,66h18.1v16.8h0.9c3.3-5.8,8.2-10.7,14.8-14.5c6.6-3.9,13.5-5.8,20.8-5.8c8.4,0,15.6,2,21.8,6
	c6.2,4,10.6,9.4,13.3,16.1c4-6.7,9.4-12.1,16-16.1c6.6-4,14.4-6,23.2-6c13.1,0,23,4,29.6,12c6.6,8,10,18.8,10,32.6v73.2H1838v-70.3
	c0-10.6-2.2-18.3-6.5-23c-4.3-4.8-10.7-7.2-19.2-7.2c-5.7,0-10.8,1.6-15.4,4.9c-4.6,3.3-8.2,7.7-10.9,13.2
	c-2.6,5.5-3.9,11.5-3.9,17.9v64.4h-19v-70c0-10.7-2.2-18.5-6.5-23.3c-4.3-4.8-10.7-7.2-19-7.2c-5.7,0-10.8,1.7-15.4,5
	c-4.6,3.4-8.2,7.8-10.9,13.4c-2.6,5.6-3.9,11.6-3.9,18v64h-19V66z"/>
<path class="st0" d="M1918.7,177.8c-6.9-4-12.1-8.8-15.5-14.4h-0.9v16.8h-18.1V19.9h19v47.2l-0.9,15.9h0.9
	c3.4-5.8,8.6-10.7,15.5-14.7c6.9-4,14.7-5.9,23.4-5.9c10.1,0,19.4,2.6,27.7,7.8c8.4,5.2,14.9,12.5,19.7,21.7
	c4.8,9.3,7.2,19.6,7.2,31.1c0,11.6-2.4,22-7.2,31.2c-4.8,9.2-11.3,16.4-19.7,21.6c-8.4,5.2-17.6,7.8-27.7,7.8
	C1933.4,183.7,1925.6,181.7,1918.7,177.8z M1958.4,161.1c5.8-3.6,10.5-8.7,14-15.3c3.5-6.6,5.3-14.2,5.3-22.7
	c0-8.5-1.8-16.1-5.3-22.7c-3.5-6.6-8.2-11.7-14-15.3c-5.8-3.6-12-5.4-18.6-5.4c-6.6,0-12.8,1.8-18.6,5.4
	c-5.8,3.6-10.4,8.7-13.9,15.2c-3.4,6.6-5.1,14.2-5.1,22.8c0,8.7,1.7,16.3,5.1,22.8c3.4,6.6,8.1,11.6,13.9,15.2
	c5.8,3.6,12,5.4,18.6,5.4C1946.4,166.5,1952.6,164.7,1958.4,161.1z"/>
<path class="st0" d="M2032.9,178.8c-6.6-3.3-11.6-7.8-15.2-13.5c-3.6-5.7-5.4-12.3-5.4-19.6c0-12.1,4.5-21.5,13.6-28.3
	c9.1-6.8,20.6-10.2,34.5-10.2c6.9,0,13.2,0.7,19.1,2.2c5.9,1.5,10.4,3.2,13.5,5.1v-6.9c0-8.5-3-15.3-8.9-20.5
	c-6-5.1-13.5-7.7-22.6-7.7c-6.4,0-12.3,1.4-17.7,4.1c-5.4,2.8-9.6,6.6-12.8,11.5l-14.3-10.7c4.5-6.9,10.6-12.2,18.5-16.1
	c7.8-3.9,16.5-5.8,26.1-5.8c15.5,0,27.7,4.1,36.6,12.2c8.9,8.1,13.3,19.2,13.3,33.2v72.3h-18.1v-16.3h-0.9
	c-3.3,5.5-8.2,10.2-14.8,14.1c-6.6,3.9-13.9,5.8-22.1,5.8C2046.9,183.7,2039.4,182,2032.9,178.8z M2074.9,162
	c5.5-3.3,9.9-7.7,13.2-13.2c3.3-5.5,4.9-11.6,4.9-18.1c-3.6-2.4-8-4.3-13.2-5.8c-5.2-1.5-10.7-2.2-16.6-2.2
	c-10.4,0-18.3,2.2-23.6,6.5c-5.3,4.3-7.9,9.9-7.9,16.8c0,6.3,2.4,11.3,7.2,15.2c4.8,3.9,10.8,5.8,18.1,5.8
	C2063.5,166.9,2069.4,165.3,2074.9,162z"/>
</svg>
